<?xml version="1.0" encoding="UTF-8" standalone="no"?>
<!-- Created with Inkscape (http://www.inkscape.org/) -->

<svg
   width="210mm"
   height="297mm"
   viewBox="0 0 210 297"
   version="1.1"
   id="svg5"
   inkscape:version="1.4 (86a8ad7, 2024-10-11)"
   sodipodi:docname="sandvich.svg"
   inkscape:export-filename="K:\Merchandise\TF2\sandvich\sandvich.png"
   inkscape:export-xdpi="976.11993"
   inkscape:export-ydpi="976.11993"
   xmlns:inkscape="http://www.inkscape.org/namespaces/inkscape"
   xmlns:sodipodi="http://sodipodi.sourceforge.net/DTD/sodipodi-0.dtd"
   xmlns="http://www.w3.org/2000/svg"
   xmlns:svg="http://www.w3.org/2000/svg">
  <sodipodi:namedview
     id="namedview7"
     pagecolor="#ffffff"
     bordercolor="#666666"
     borderopacity="1.0"
     inkscape:pageshadow="2"
     inkscape:pageopacity="0.0"
     inkscape:pagecheckerboard="0"
     inkscape:document-units="mm"
     showgrid="false"
     inkscape:zoom="1.0998546"
     inkscape:cx="-274.12714"
     inkscape:cy="639.63"
     inkscape:window-width="3840"
     inkscape:window-height="2091"
     inkscape:window-x="-8"
     inkscape:window-y="-8"
     inkscape:window-maximized="1"
     inkscape:current-layer="svg5"
     inkscape:showpageshadow="2"
     inkscape:deskcolor="#d1d1d1" />
  <defs
     id="defs2" />
  <g
     inkscape:groupmode="layer"
     id="layer4"
     inkscape:label="Sandvitch"
     style="display:inline;opacity:1">
    <g
       inkscape:groupmode="layer"
       id="layer9"
       inkscape:label="bottom bread 1"
       style="display:inline;opacity:1">
      <path
         style="fill:#6e4a13;fill-opacity:1;fill-rule:evenodd;stroke:none;stroke-width:0.264583px;stroke-linecap:butt;stroke-linejoin:miter;stroke-opacity:1"
         d="m 20.913867,144.63796 c -0.234935,13.61849 2.033329,16.56486 6.450072,20.26735 8.542318,-1.04218 19.380941,4.66595 26.762534,13.11064 14.168625,14.03104 35.695871,36.31326 39.189068,39.18156 4.512442,2.17855 6.432015,2.49504 10.847849,1.11259 4.40507,-2.41373 58.41097,-34.93394 89.97022,-43.18089 l -79.74633,-31.39336 z"
         id="path27753"
         sodipodi:nodetypes="cccccccc" />
    </g>
    <g
       inkscape:groupmode="layer"
       id="layer10"
       inkscape:label="bottom bread 2"
       style="display:inline;opacity:1">
      <path
         style="fill:#e6dbc7;fill-opacity:1;fill-rule:evenodd;stroke:none;stroke-width:0.264583px;stroke-linecap:butt;stroke-linejoin:miter;stroke-opacity:1"
         d="m 88.793814,198.3402 c 0.837908,4.05702 3.305212,6.21308 6.166236,7.9098 2.814342,1.64121 5.16583,1.23124 7.27191,0.85051 3.81348,-1.45532 21.80679,-11.30857 32.70232,-16.96778 z"
         id="path30751"
         sodipodi:nodetypes="ccccc" />
    </g>
    <g
       inkscape:groupmode="layer"
       id="layer8"
       inkscape:label="ham"
       style="display:inline;opacity:1">
      <path
         style="fill:#be868c;fill-opacity:1;fill-rule:evenodd;stroke:none;stroke-width:0.264583px;stroke-linecap:butt;stroke-linejoin:miter;stroke-opacity:1"
         d="m 34.280099,145.17923 7.99869,30.85209 21.831011,-6.79588 c -0.664199,21.89877 10.822264,26.47638 16.839345,38.85077 l 121.724425,-36.68572 1.08253,-9.86304 c -0.1867,-3.36175 -4.91222,-4.85456 -15.99738,-3.72871 z"
         id="path26655"
         sodipodi:nodetypes="cccccccc" />
      <path
         style="fill:#a5757b;fill-opacity:1;fill-rule:evenodd;stroke:none;stroke-width:0.264583px;stroke-linecap:butt;stroke-linejoin:miter;stroke-opacity:1"
         d="m 68.349706,189.11188 c 0,0 7.094079,6.71525 8.930869,9.14136 1.357802,1.98714 2.059812,4.82628 2.059812,4.82628 0,0 -2.216468,-2.45711 -4.330118,-4.94656 -1.786082,-2.42397 -6.660563,-9.02108 -6.660563,-9.02108 z"
         id="path1241"
         sodipodi:nodetypes="ccccc" />
    </g>
    <g
       inkscape:groupmode="layer"
       id="layer7"
       inkscape:label="Cheese"
       style="opacity:1">
      <g
         transform="scale(0.264583)"
         id="g1391">
        <g
           style="fill:#d1c479;fill-opacity:1;fill-rule:evenodd;stroke:none;stroke-width:0.999999px;stroke-linecap:butt;stroke-linejoin:miter;stroke-opacity:1"
           id="g1388">
          <path
             d="m 61.3711,477.791 -41.8223,21.82 7.0711,7.071 41.8223,-21.82 z"
             id="path1318" />
          <path
             d="m 19.5488,499.611 5.4551,24.549 7.0711,7.071 -5.4551,-24.549 z"
             id="path1320" />
          <path
             d="m 25.0039,524.16 70.4629,58.19 7.0712,7.071 -70.463,-58.19 z"
             id="path1322" />
          <path
             d="m 95.4668,582.35 -19.5469,25.004 7.0711,7.071 19.547,-25.004 z"
             id="path1324" />
          <path
             d="m 75.9199,607.354 131.8341,40.458 7.071,7.072 -131.834,-40.459 z"
             id="path1326" />
          <path
             d="m 207.754,647.812 110.924,-10 7.071,7.072 -110.924,10 z"
             id="path1328" />
          <path
             d="m 318.678,637.812 131.381,159.112 7.071,7.071 -131.381,-159.111 z"
             id="path1330" />
          <path
             d="m 450.059,796.924 c 0,0 73.235,-69.137 86.415,-77.977 l 7.071,7.071 c -13.18,8.84 -86.415,77.977 -86.415,77.977 z"
             id="path1332" />
          <path
             d="m 536.474,718.947 c 10.929,-7.876 189.077,-96.136 189.077,-96.136 l 7.071,7.071 c 0,0 -178.148,88.26 -189.077,96.136 z"
             id="path1334" />
          <path
             d="m 725.551,622.811 c 0,0 0,0 0,0 l 7.071,7.071 c 0,0 0,0 0,0 z"
             id="path1336" />
          <path
             d="m 725.551,622.811 -30.004,-22.278 7.071,7.071 30.004,22.278 z"
             id="path1338" />
          <path
             d="M 695.547,600.533 61.3711,477.791 l 7.0711,7.071 634.1758,122.742 z"
             id="path1340" />
          <path
             d="m 70.9746,496.43 c 2.5936,0.008 8.6296,0.495 11.3273,3.192 l 7.0711,7.071 c -2.6977,-2.697 -8.7337,-3.184 -11.3273,-3.192 z"
             id="path1342" />
          <path
             d="m 82.3019,499.622 c 0.8305,0.831 1.3446,1.871 1.3446,3.171 l 7.0711,7.071 c 0,-1.3 -0.5142,-2.34 -1.3446,-3.171 z"
             id="path1344" />
          <path
             d="m 83.6465,502.793 c 0,5.524 -10.2211,7.099 -22.0469,10.002 l 7.0711,7.071 c 11.8258,-2.903 22.0468,-4.478 22.0469,-10.002 z"
             id="path1346" />
          <path
             d="m 61.5996,512.795 c -7.0945,1.742 -15.3984,0.403 -18.4248,-2.623 l 7.0711,7.071 c 3.0264,3.026 11.3303,4.365 18.4248,2.623 z"
             id="path1348" />
          <path
             d="m 43.1748,510.172 c -1.4038,-1.404 -1.672,-3.171 -0.1572,-5.162 l 7.071,7.071 c -1.5147,1.991 -1.2465,3.758 0.1573,5.162 z"
             id="path1350" />
          <path
             d="m 43.0176,505.01 c 2.9701,-3.905 15.3637,-8.621 27.957,-8.58 l 7.0711,7.071 c -12.5934,-0.041 -24.9869,4.675 -27.9571,8.58 z"
             id="path1352" />
          <path
             d="m 70.9746,496.43 -9.6035,-18.639 7.0711,7.071 9.6035,18.639 z"
             id="path1354" />
          <path
             d="m 198.607,600.312 c 5.88,-0.039 9.416,1.192 11.389,3.165 l 7.071,7.071 c -1.973,-1.973 -5.509,-3.204 -11.389,-3.164 z"
             id="path1356" />
          <path
             d="m 209.996,603.477 c 2.204,2.204 2.458,5.334 1.85,8.65 l 7.071,7.071 c 0.608,-3.316 0.354,-6.446 -1.85,-8.65 z"
             id="path1358" />
          <path
             d="m 211.846,612.127 c -0.936,5.104 -11.834,10.577 -23.701,9.777 l 7.071,7.071 c 11.867,0.8 22.765,-4.673 23.701,-9.777 z"
             id="path1360" />
          <path
             d="m 188.145,621.904 c -8.224,-0.554 -15.355,-0.449 -18.447,-3.54 l 7.071,7.071 c 3.092,3.091 10.223,2.986 18.447,3.54 z"
             id="path1362" />
          <path
             d="m 169.698,618.364 c -1.052,-1.052 -1.636,-2.474 -1.636,-4.419 l 7.072,7.071 c -10e-4,1.945 0.583,3.367 1.635,4.419 z"
             id="path1364" />
          <path
             d="m 168.062,613.945 c 10e-4,-7.651 13.114,-11.902 24.545,-13.232 l 7.071,7.071 c -11.431,1.33 -24.544,5.581 -24.544,13.232 z"
             id="path1366" />
          <path
             d="m 192.607,600.713 c 2.229,-0.259 4.222,-0.388 6,-0.401 l 7.071,7.072 c -1.778,0.012 -3.771,0.141 -6,0.4 z"
             id="path1368" />
          <path
             d="M 198.607,600.312 61.3711,477.791 l 7.0711,7.071 137.2358,122.522 z"
             id="path1370" />
          <path
             d="m 443.969,695.877 c 2.557,-0.156 5.123,0.556 7.568,2.396 l 7.071,7.072 c -2.445,-1.841 -5.011,-2.553 -7.568,-2.397 z"
             id="path1372" />
          <path
             d="m 451.537,698.273 c 9.125,6.868 24.856,10.802 31.852,17.799 l 7.071,7.071 c -6.996,-6.997 -22.727,-10.931 -31.852,-17.798 z"
             id="path1374" />
          <path
             d="m 483.389,716.072 c 2.411,2.411 3.785,5.185 3.494,8.569 l 7.071,7.071 c 0.291,-3.384 -1.083,-6.158 -3.494,-8.569 z"
             id="path1376" />
          <path
             d="m 486.883,724.641 c -0.979,11.383 -14.348,23.369 -29.608,26.197 l 7.071,7.071 c 15.26,-2.828 28.629,-14.813 29.608,-26.197 z"
             id="path1378" />
          <path
             d="m 457.275,750.838 c -9.966,1.847 -21.164,-2.272 -28.22,-9.327 l 7.071,7.071 c 7.056,7.055 18.254,11.174 28.22,9.327 z"
             id="path1380" />
          <path
             d="m 429.055,741.511 c -4.304,-4.305 -7.067,-9.702 -7.067,-15.505 l 7.071,7.071 c 0,5.803 2.763,11.2 7.067,15.505 z"
             id="path1382" />
          <path
             d="m 421.988,726.006 c 0,-12.444 10.9,-29.452 21.981,-30.129 l 7.071,7.071 c -11.081,0.677 -21.981,17.685 -21.981,30.129 z"
             id="path1384" />
          <path
             d="M 443.969,695.877 61.3711,477.791 68.4422,484.862 451.04,702.948 Z"
             id="path1386" />
        </g>
        <g
           id="g1708">
          <g
             style="fill:#d1c479;fill-opacity:1;fill-rule:evenodd;stroke:none;stroke-width:0.999999px;stroke-linecap:butt;stroke-linejoin:miter;stroke-opacity:1"
             id="g1705">
            <path
               d="m 61.3711,477.791 -41.8223,21.82 7.0711,7.071 41.8223,-21.82 z"
               id="path1635" />
            <path
               d="m 19.5488,499.611 5.4551,24.549 7.0711,7.071 -5.4551,-24.549 z"
               id="path1637" />
            <path
               d="m 25.0039,524.16 70.4629,58.19 7.0712,7.071 -70.463,-58.19 z"
               id="path1639"
               style="fill:#c6ba73;fill-opacity:1" />
            <path
               d="m 95.4668,582.35 -19.5469,25.004 7.0711,7.071 19.547,-25.004 z"
               id="path1641" />
            <path
               d="m 75.9199,607.354 131.8341,40.458 7.071,7.072 -131.834,-40.459 z"
               id="path1643"
               style="fill:#c6ba73;fill-opacity:1" />
            <path
               d="m 207.754,647.812 110.924,-10 7.071,7.072 -110.924,10 z"
               id="path1645"
               style="fill:#c6ba73;fill-opacity:1" />
            <path
               d="m 318.678,637.812 131.381,159.112 7.071,7.071 -131.381,-159.111 z"
               id="path1647" />
            <path
               d="m 450.059,796.924 c 0,0 73.235,-69.137 86.415,-77.977 l 7.071,7.071 c -13.18,8.84 -86.415,77.977 -86.415,77.977 z"
               id="path1649"
               style="fill:#c6ba73;fill-opacity:1" />
            <path
               d="m 536.474,718.947 c 10.929,-7.876 189.077,-96.136 189.077,-96.136 l 7.071,7.071 c 0,0 -178.148,88.26 -189.077,96.136 z"
               id="path1651"
               style="fill:#c6ba73;fill-opacity:1" />
            <path
               d="m 725.551,622.811 c 0,0 0,0 0,0 l 7.071,7.071 c 0,0 0,0 0,0 z"
               id="path1653" />
            <path
               d="m 725.551,622.811 -30.004,-22.278 7.071,7.071 30.004,22.278 z"
               id="path1655" />
            <path
               d="M 695.547,600.533 61.3711,477.791 l 7.0711,7.071 634.1758,122.742 z"
               id="path1657" />
            <path
               d="m 70.9746,496.43 c 2.5936,0.008 8.6296,0.495 11.3273,3.192 l 7.0711,7.071 c -2.6977,-2.697 -8.7337,-3.184 -11.3273,-3.192 z"
               id="path1659"
               style="fill:#c6ba73;fill-opacity:1" />
            <path
               d="m 82.3019,499.622 c 0.8305,0.831 1.3446,1.871 1.3446,3.171 l 7.0711,7.071 c 0,-1.3 -0.5142,-2.34 -1.3446,-3.171 z"
               id="path1661" />
            <path
               d="m 83.6465,502.793 c 0,5.524 -10.2211,7.099 -22.0469,10.002 l 7.0711,7.071 c 11.8258,-2.903 22.0468,-4.478 22.0469,-10.002 z"
               id="path1663" />
            <path
               d="m 61.5996,512.795 c -7.0945,1.742 -15.3984,0.403 -18.4248,-2.623 l 7.0711,7.071 c 3.0264,3.026 11.3303,4.365 18.4248,2.623 z"
               id="path1665" />
            <path
               d="m 43.1748,510.172 c -1.4038,-1.404 -1.672,-3.171 -0.1572,-5.162 l 7.071,7.071 c -1.5147,1.991 -1.2465,3.758 0.1573,5.162 z"
               id="path1667"
               style="fill:#c6ba73;fill-opacity:1" />
            <path
               d="m 43.0176,505.01 c 2.9701,-3.905 15.3637,-8.621 27.957,-8.58 l 7.0711,7.071 c -12.5934,-0.041 -24.9869,4.675 -27.9571,8.58 z"
               id="path1669"
               style="fill:#c6ba73;fill-opacity:1" />
            <path
               d="m 70.9746,496.43 -9.6035,-18.639 7.0711,7.071 9.6035,18.639 z"
               id="path1671"
               style="fill:#c6ba73;fill-opacity:1" />
            <path
               d="m 198.607,600.312 c 5.88,-0.039 9.416,1.192 11.389,3.165 l 7.071,7.071 c -1.973,-1.973 -5.509,-3.204 -11.389,-3.164 z"
               id="path1673"
               style="fill:#c6ba73;fill-opacity:1" />
            <path
               d="m 209.996,603.477 c 2.204,2.204 2.458,5.334 1.85,8.65 l 7.071,7.071 c 0.608,-3.316 0.354,-6.446 -1.85,-8.65 z"
               id="path1675" />
            <path
               d="m 211.846,612.127 c -0.936,5.104 -11.834,10.577 -23.701,9.777 l 7.071,7.071 c 11.867,0.8 22.765,-4.673 23.701,-9.777 z"
               id="path1677" />
            <path
               d="m 188.145,621.904 c -8.224,-0.554 -15.355,-0.449 -18.447,-3.54 l 7.071,7.071 c 3.092,3.091 10.223,2.986 18.447,3.54 z"
               id="path1679" />
            <path
               d="m 169.698,618.364 c -1.052,-1.052 -1.636,-2.474 -1.636,-4.419 l 7.072,7.071 c -10e-4,1.945 0.583,3.367 1.635,4.419 z"
               id="path1681"
               style="fill:#c6ba73;fill-opacity:1" />
            <path
               d="m 168.062,613.945 c 10e-4,-7.651 13.114,-11.902 24.545,-13.232 l 7.071,7.071 c -11.431,1.33 -24.544,5.581 -24.544,13.232 z"
               id="path1683"
               style="fill:#c6ba73;fill-opacity:1" />
            <path
               d="m 192.607,600.713 c 2.229,-0.259 4.222,-0.388 6,-0.401 l 7.071,7.072 c -1.778,0.012 -3.771,0.141 -6,0.4 z"
               id="path1685"
               style="fill:#c6ba73;fill-opacity:1" />
            <path
               d="M 198.607,600.312 61.3711,477.791 l 7.0711,7.071 137.2358,122.522 z"
               id="path1687"
               style="fill:#c6ba73;fill-opacity:1" />
            <path
               d="m 443.969,695.877 c 2.557,-0.156 5.123,0.556 7.568,2.396 l 7.071,7.072 c -2.445,-1.841 -5.011,-2.553 -7.568,-2.397 z"
               id="path1689"
               style="fill:#c6ba73;fill-opacity:1" />
            <path
               d="m 451.537,698.273 c 9.125,6.868 24.856,10.802 31.852,17.799 l 7.071,7.071 c -6.996,-6.997 -22.727,-10.931 -31.852,-17.798 z"
               id="path1691"
               style="fill:#c6ba73;fill-opacity:1" />
            <path
               d="m 483.389,716.072 c 2.411,2.411 3.785,5.185 3.494,8.569 l 7.071,7.071 c 0.291,-3.384 -1.083,-6.158 -3.494,-8.569 z"
               id="path1693" />
            <path
               d="m 486.883,724.641 c -0.979,11.383 -14.348,23.369 -29.608,26.197 l 7.071,7.071 c 15.26,-2.828 28.629,-14.813 29.608,-26.197 z"
               id="path1695" />
            <path
               d="m 457.275,750.838 c -9.966,1.847 -21.164,-2.272 -28.22,-9.327 l 7.071,7.071 c 7.056,7.055 18.254,11.174 28.22,9.327 z"
               id="path1697" />
            <path
               d="m 429.055,741.511 c -4.304,-4.305 -7.067,-9.702 -7.067,-15.505 l 7.071,7.071 c 0,5.803 2.763,11.2 7.067,15.505 z"
               id="path1699"
               style="fill:#c6ba73;fill-opacity:1" />
            <path
               d="m 421.988,726.006 c 0,-12.444 10.9,-29.452 21.981,-30.129 l 7.071,7.071 c -11.081,0.677 -21.981,17.685 -21.981,30.129 z"
               id="path1701"
               style="fill:#c6ba73;fill-opacity:1" />
            <path
               d="M 443.969,695.877 61.3711,477.791 68.4422,484.862 451.04,702.948 Z"
               id="path1703"
               style="fill:#c6ba73;fill-opacity:1" />
          </g>
          <path
             id="path22646"
             style="fill:#d1c479;fill-opacity:1;fill-rule:evenodd;stroke:none;stroke-width:0.999999px;stroke-linecap:butt;stroke-linejoin:miter;stroke-opacity:1"
             d="m 61.371094,477.79102 -41.822266,21.82031 5.455078,24.54883 70.462891,58.18945 -19.546875,25.00391 131.833988,40.45898 110.92382,-10 131.38086,159.11133 c 0,0 73.23554,-69.13723 86.41518,-77.97724 10.92946,-7.87564 189.07701,-96.13604 189.07701,-96.13604 l -30.0039,-22.27735 z m 9.603515,18.63867 c 3.392024,0.0113 12.671909,0.83969 12.671875,6.36328 -1.5e-5,5.52359 -10.22105,7.09878 -22.046875,10.00195 -10.385383,2.54956 -23.362404,-1.50097 -18.582031,-7.78515 2.970165,-3.90452 15.363697,-8.62075 27.957031,-8.58008 z M 198.60742,600.3125 c 12.44904,-0.0843 14.39059,5.53023 13.23828,11.81445 -0.93583,5.10365 -11.83352,10.57728 -23.70117,9.77735 -11.02214,-0.74291 -20.08265,-0.3011 -20.08203,-7.95899 6.2e-4,-7.6515 13.11333,-11.90255 24.54492,-13.23242 2.22889,-0.25929 4.22157,-0.38835 6,-0.40039 z m 245.36133,95.56445 c 2.55721,-0.15617 5.12346,0.55646 7.56836,2.39649 12.26963,9.2341 36.48122,13.16488 35.3457,26.36718 -0.97908,11.38383 -14.34807,23.36973 -29.60742,26.19727 -16.04647,2.97339 -35.28711,-9.51667 -35.28711,-24.83203 -3e-5,-12.44373 10.89922,-29.45215 21.98047,-30.12891 z"
             sodipodi:nodetypes="cccccccccccccssscssssssssssss" />
        </g>
      </g>
    </g>
    <g
       inkscape:groupmode="layer"
       id="layer6"
       inkscape:label="tomatoes"
       style="display:inline;opacity:1">
      <path
         style="fill:#99362d;fill-opacity:1;fill-rule:evenodd;stroke:#000000;stroke-width:0.265;stroke-linecap:butt;stroke-linejoin:miter;stroke-miterlimit:4;stroke-dasharray:0, 2.915;stroke-dashoffset:0;stroke-opacity:1"
         d="m 22.129765,132.28684 c -4.423792,17.41937 7.515677,20.73022 10.359925,21.82656 6.913987,2.73557 17.16711,1.97651 22.346454,1.23877 l -0.488207,-5.7465 -8.845359,0.93557 c -5.582563,0.59766 -10.800026,-1.23866 -15.904641,-3.82732 -4.218842,-2.73997 -6.140152,-6.38253 -5.868556,-10.8866 2.076529,-2.30503 0.32592,-3.69826 -1.599616,-3.54048 z"
         id="path14449"
         sodipodi:nodetypes="cccccccc" />
      <path
         style="fill:#99362d;fill-opacity:1;fill-rule:evenodd;stroke:none;stroke-width:0.265;stroke-linecap:butt;stroke-linejoin:miter;stroke-miterlimit:4;stroke-dasharray:0, 2.915;stroke-dashoffset:0;stroke-opacity:1"
         d="m 60.046392,161.13015 c -7.561336,6.07333 -3.027418,11.51753 -0.595362,16.28737 4.481105,3.96416 9.214121,5.82906 14.033505,6.97423 5.157859,0.79896 9.862865,0.14879 14.458762,-0.85052 l 0.680413,8.25001 c -5.520143,-0.44491 -11.159091,0.42001 -19.221648,-1.61598 -4.269538,-1.79925 -5.800145,-1.98253 -12.417526,-7.35697 -2.984649,-3.12386 -3.510282,-7.76054 -3.912371,-13.18298 -0.383558,-4.09673 2.887673,-7.56593 4.847937,-11.43943 l 2.12629,2.93427"
         id="path16136"
         sodipodi:nodetypes="cccccccccc" />
      <path
         style="fill:#99362d;fill-opacity:1;fill-rule:evenodd;stroke:none;stroke-width:0.265;stroke-linecap:butt;stroke-linejoin:miter;stroke-miterlimit:4;stroke-dasharray:0, 2.915;stroke-dashoffset:0;stroke-opacity:1"
         d="m 137.4211,172.72359 c 6.02589,3.40649 11.54939,3.04513 17.14005,3.18744 5.25606,-1.57645 11.18455,-1.19368 15.72888,-5.21034 3.95841,-2.92552 4.58838,-5.24114 5.56086,-8.92268 l -1.98463,-8.66023 2.2008,0.16707 c 1.13186,3.64384 3.286,7.07743 2.97128,11.50019 -0.25825,4.65322 -2.30061,7.52235 -4.4504,10.28403 -3.82954,3.30382 -8.93001,4.82939 -14.07288,6.55531 l -12.50923,0.84197 -13.83232,-3.66857 z"
         id="path17989"
         sodipodi:nodetypes="cccccccccccc" />
      <path
         style="fill:#92484a;fill-opacity:1;fill-rule:evenodd;stroke:none;stroke-width:0.265;stroke-linecap:butt;stroke-linejoin:miter;stroke-miterlimit:4;stroke-dasharray:0, 2.915;stroke-dashoffset:0;stroke-opacity:1"
         d="m 26.025773,129.78866 c -3.411137,3.63571 -2.647948,7.5445 -1.786083,11.2268 2.67082,5.9045 7.102858,7.48067 10.716496,8.33505 11.776691,3.72692 16.316637,0.68988 23.143895,-0.56957 z"
         id="path19821"
         sodipodi:nodetypes="ccccc" />
      <path
         style="fill:#92484a;fill-opacity:1;fill-rule:evenodd;stroke:none;stroke-width:0.265;stroke-linecap:butt;stroke-linejoin:miter;stroke-miterlimit:4;stroke-dasharray:0, 2.915;stroke-dashoffset:0;stroke-opacity:1"
         d="m 60.896907,157.68557 c -3.95835,4.68371 -4.788314,8.32462 -5.4433,11.90721 0.823037,9.86794 6.825804,11.50804 12.952745,13.82479 9.31696,2.6549 14.05404,1.44922 19.536943,0.12366 z"
         id="path19823"
         sodipodi:nodetypes="ccccc" />
      <path
         style="fill:#92484a;fill-opacity:1;fill-rule:evenodd;stroke:none;stroke-width:0.265;stroke-linecap:butt;stroke-linejoin:miter;stroke-miterlimit:4;stroke-dasharray:0, 2.915;stroke-dashoffset:0;stroke-opacity:1"
         d="m 129.3634,164.8299 c 0.38417,8.02824 17.03694,12.05385 22.87886,11.99226 11.33134,-0.90471 19.78166,-4.56545 22.58119,-9.27061 4.92654,-7.66732 0.22398,-14.63251 -5.57087,-21.51805 z"
         id="path19825"
         sodipodi:nodetypes="ccccc" />
      <path
         style="display:inline;opacity:0.368254;fill:none;fill-rule:evenodd;stroke:none;stroke-width:0.264583px;stroke-linecap:butt;stroke-linejoin:miter;stroke-opacity:1"
         d="m 27.183516,135.16583 -1.563653,5.83363 6.074193,4.7511 7.246935,-1.53358 z"
         id="path34960" />
      <path
         style="fill:none;fill-rule:evenodd;stroke:none;stroke-width:0.264583px;stroke-linecap:butt;stroke-linejoin:miter;stroke-opacity:1"
         d="m 62.555413,163.8518 -2.806703,5.40078 3.487113,6.50644 7.016753,-1.02062 z"
         id="path34963" />
      <path
         style="fill:none;fill-rule:evenodd;stroke:none;stroke-width:0.264583px;stroke-linecap:butt;stroke-linejoin:miter;stroke-opacity:1"
         d="m 74.887885,174.65335 -4.507732,6.50644 10.461341,2.04124 z"
         id="path34965" />
      <path
         style="fill:none;fill-rule:evenodd;stroke:none;stroke-width:0.264583px;stroke-linecap:butt;stroke-linejoin:miter;stroke-opacity:1"
         d="m 143.43515,172.18232 7.51757,2.64618 8.72037,-2.10491 -3.54829,-6.85602 z"
         id="path34967" />
      <path
         style="fill:none;fill-rule:evenodd;stroke:none;stroke-width:0.264583px;stroke-linecap:butt;stroke-linejoin:miter;stroke-opacity:1"
         d="m 159.13183,162.74026 7.51756,7.15672 6.25462,-5.47279 -7.45743,-3.84899 z"
         id="path34969" />
      <path
         style="fill:#7f2e27;fill-opacity:1;fill-rule:evenodd;stroke:none;stroke-width:0.264583px;stroke-linecap:butt;stroke-linejoin:miter;stroke-opacity:1"
         d="m 27.664642,133.63225 c -2.979944,2.23685 -2.560594,4.79743 -2.044779,7.36721 1.88303,2.61103 3.967905,3.75869 6.074193,4.7511 5.234819,0.031 8.476791,-4.67385 10.464451,-7.96862 z"
         id="path35416"
         sodipodi:nodetypes="ccccc" />
      <path
         style="fill:#7f2e27;fill-opacity:1;fill-rule:evenodd;stroke:none;stroke-width:0.264583px;stroke-linecap:butt;stroke-linejoin:miter;stroke-opacity:1"
         d="m 63.267833,159.43253 c -2.170581,3.59277 -3.584541,8.66829 -3.668573,11.36656 0.848254,2.58336 3.117379,5.17411 4.44846,6.52358 4.012401,1.57752 8.282222,-4.50075 12.030044,-7.24527 z"
         id="path35418"
         sodipodi:nodetypes="ccccc" />
      <path
         style="fill:#7f2e27;fill-opacity:1;fill-rule:evenodd;stroke:none;stroke-width:0.264583px;stroke-linecap:butt;stroke-linejoin:miter;stroke-opacity:1"
         d="m 76.137904,173.86626 c -2.564345,2.01545 -4.968599,4.13407 -5.757751,7.29353 2.728501,2.32153 5.307002,1.89305 7.92281,2.14853 z"
         id="path35420"
         sodipodi:nodetypes="cccc" />
      <path
         style="fill:#7f2e27;fill-opacity:1;fill-rule:evenodd;stroke:none;stroke-width:0.264583px;stroke-linecap:butt;stroke-linejoin:miter;stroke-opacity:1"
         d="m 150.59187,160.45492 c 3.71608,3.95659 8.39862,7.72667 9.08122,12.26867 -2.6799,1.54439 -5.64543,2.02783 -8.72037,2.10491 -5.05077,-0.85853 -7.87391,-4.56843 -11.66727,-7.03644 z"
         id="path35422"
         sodipodi:nodetypes="ccccc" />
      <path
         style="fill:#7f2e27;fill-opacity:1;fill-rule:evenodd;stroke:none;stroke-width:0.264583px;stroke-linecap:butt;stroke-linejoin:miter;stroke-opacity:1"
         d="m 157.20733,159.85351 c 2.85554,3.75508 4.75384,8.84609 9.44206,10.04347 4.62976,-0.6497 6.78446,-2.44173 6.25462,-5.47279 -3.63591,-4.47666 -7.85562,-5.61731 -11.84768,-8.05883 z"
         id="path35424"
         sodipodi:nodetypes="ccccc" />
    </g>
    <g
       inkscape:groupmode="layer"
       id="layer5"
       inkscape:label="lettuce"
       style="display:inline">
      <path
         style="fill:#526834;fill-opacity:1;fill-rule:evenodd;stroke:none;stroke-width:0.264583px;stroke-linecap:butt;stroke-linejoin:miter;stroke-opacity:1"
         d="m 15.877098,115.22925 c -14.6292464,16.10331 39.23568,36.21797 33.317852,40.77527 16.357577,17.40777 31.393531,31.14437 44.864831,40.53471 17.677009,-6.52101 35.495209,-12.19491 52.562819,-22.37227 16.89089,-11.30076 34.44921,-15.25972 51.96141,-19.72609 C 170.48565,132.04059 20.419425,113.90309 15.877098,115.22925 Z"
         id="path11833"
         sodipodi:nodetypes="cccccc" />
      <path
         style="fill:#6a8942;fill-opacity:1;fill-rule:evenodd;stroke:none;stroke-width:0.264583px;stroke-linecap:butt;stroke-linejoin:miter;stroke-opacity:1"
         d="m 97.066805,195.21614 c 7.262095,-3.13924 10.974425,-3.8516 17.194655,-7.82432 3.20527,-3.27438 2.57537,-2.52707 4.39579,-7.75208 10.32161,-5.88127 22.27572,-15.19023 33.13373,-19.46229 10.97949,-6.43091 20.13785,-7.35916 31.81804,-9.88628 7.18224,3.73614 8.28459,4.07535 14.97499,4.1497 -9.26546,2.83931 -17.87847,5.54716 -27.54436,8.53995 -11.79035,4.82721 -22.36492,9.51416 -32.41574,17.20019 -3.66221,4.61976 -41.454597,15.35936 -41.557105,15.03513 z"
         id="path992"
         sodipodi:nodetypes="ccccccccc" />
    </g>
    <g
       inkscape:groupmode="layer"
       id="layer3"
       inkscape:label="Top Bread1"
       style="display:inline;opacity:1">
      <path
         style="fill:#6e4a13;fill-opacity:1;fill-rule:evenodd;stroke:none;stroke-width:0.264583px;stroke-linecap:butt;stroke-linejoin:miter;stroke-opacity:1"
         d="m 38.868556,101.12629 c -13.842622,-1.943731 -21.521008,4.55854 -22.113401,8.50515 0.326441,10.55246 1.88545,18.02349 4.932989,21.7732 2.282312,2.40911 15.310615,6.90476 18.371135,7.73969 4.716092,2.50065 26.12889,23.49979 32.914947,33.1701 4.996914,6.2446 12.134687,13.30172 17.775774,15.73454 7.081187,0.43429 14.04116,0.50494 19.56185,-3.74227 7.69799,-4.26998 41.47913,-24.12925 41.47913,-24.12925 l 40.00026,-11.4223 -3.31701,-11.82216 -85.4943,-9.70785 z"
         id="path8080"
         sodipodi:nodetypes="cccccccccccc" />
    </g>
    <g
       inkscape:groupmode="layer"
       id="g22208"
       inkscape:label="Top Bread 2"
       style="display:inline;opacity:1">
      <path
         style="fill:#e6dbc7;fill-opacity:1;fill-rule:evenodd;stroke:none;stroke-width:0.264583px;stroke-linecap:butt;stroke-linejoin:miter;stroke-opacity:1"
         d="m 40.642854,101.36007 c 33.510307,11.56701 145.329046,32.53422 147.188996,35.50778 2.2959,3.67052 -63.27551,27.996 -80.21673,34.81776 -8.523637,3.43223 -14.250134,4.63202 -22.97601,-1.94513 -11.056367,-8.33376 -31.481895,-34.25337 -40.667461,-40.71729 -9.185568,-6.46391 -14.514084,-2.1176 -22.368556,-13.18299 -8.117507,-11.43595 16.195851,-14.37382 19.039761,-14.48013 z"
         id="path22204"
         sodipodi:nodetypes="csssssc" />
    </g>
    <g
       inkscape:groupmode="layer"
       id="layer12"
       inkscape:label="Top Bread 3"
       style="display:inline">
      <ellipse
         style="opacity:1;fill:#d6c39c;fill-opacity:1;stroke:none;stroke-width:0.231242;stroke-miterlimit:4;stroke-dasharray:none;stroke-dashoffset:0;stroke-opacity:1"
         id="path34158"
         cx="43.418812"
         cy="106.12307"
         rx="2.6365979"
         ry="1.3438358" />
      <ellipse
         style="opacity:1;fill:#d6c39c;fill-opacity:1;stroke:none;stroke-width:0.264999;stroke-miterlimit:4;stroke-dasharray:none;stroke-dashoffset:0;stroke-opacity:1"
         id="path34160"
         cx="40.420746"
         cy="113.56508"
         rx="2.0199742"
         ry="1.126933" />
      <ellipse
         style="opacity:1;fill:#dcd2bf;fill-opacity:1;stroke:none;stroke-width:0.264999;stroke-miterlimit:4;stroke-dasharray:none;stroke-dashoffset:0;stroke-opacity:1"
         id="path34162"
         cx="49.351158"
         cy="119.26353"
         rx="2.1900773"
         ry="0.27641752" />
      <ellipse
         style="opacity:1;fill:#d6c39c;fill-opacity:1;stroke:none;stroke-width:0.238172;stroke-miterlimit:4;stroke-dasharray:none;stroke-dashoffset:0;stroke-opacity:1"
         id="path34164"
         cx="59.578606"
         cy="115.77642"
         rx="2.5940721"
         ry="1.7690936" />
      <ellipse
         style="opacity:1;fill:#d6c39c;fill-opacity:1;stroke:none;stroke-width:0.264999;stroke-miterlimit:4;stroke-dasharray:none;stroke-dashoffset:0;stroke-opacity:1"
         id="path34168"
         cx="67.743553"
         cy="134.72165"
         rx="1.9561856"
         ry="1.3608248" />
      <ellipse
         style="opacity:1;fill:#d6c39c;fill-opacity:1;stroke:none;stroke-width:0.215294;stroke-miterlimit:4;stroke-dasharray:none;stroke-dashoffset:0;stroke-opacity:1"
         id="path34170"
         cx="82.797684"
         cy="121.19846"
         rx="5.1456184"
         ry="2.9191673" />
      <ellipse
         style="opacity:1;fill:#d6c39c;fill-opacity:1;stroke:none;stroke-width:0.264999;stroke-miterlimit:4;stroke-dasharray:none;stroke-dashoffset:0;stroke-opacity:1"
         id="path34172"
         cx="86.602348"
         cy="151.19327"
         rx="3.2475884"
         ry="1.6839347" />
      <ellipse
         style="opacity:1;fill:#d6c39c;fill-opacity:1;stroke:none;stroke-width:0.225281;stroke-miterlimit:4;stroke-dasharray:none;stroke-dashoffset:0;stroke-opacity:1"
         id="path34174"
         cx="95.382874"
         cy="152.57651"
         rx="4.6909609"
         ry="2.2166514" />
      <ellipse
         style="opacity:1;fill:#d6c39c;fill-opacity:1;stroke:none;stroke-width:0.19624;stroke-miterlimit:4;stroke-dasharray:none;stroke-dashoffset:0;stroke-opacity:1"
         id="path34176"
         cx="100.55495"
         cy="162.68011"
         rx="1.9244968"
         ry="1.0223888" />
      <ellipse
         style="opacity:1;fill:#d6c39c;fill-opacity:1;stroke:none;stroke-width:0.264999;stroke-miterlimit:4;stroke-dasharray:none;stroke-dashoffset:0;stroke-opacity:1"
         id="path34178"
         cx="115.52995"
         cy="141.33023"
         rx="2.4657617"
         ry="2.0447779" />
      <ellipse
         style="opacity:1;fill:#d6c39c;fill-opacity:1;stroke:none;stroke-width:0.264999;stroke-miterlimit:4;stroke-dasharray:none;stroke-dashoffset:0;stroke-opacity:1"
         id="path34180"
         cx="145.84077"
         cy="136.519"
         rx="3.1874478"
         ry="1.8042158" />
      <ellipse
         style="opacity:1;fill:#d6c39c;fill-opacity:1;stroke:none;stroke-width:0.203866;stroke-miterlimit:4;stroke-dasharray:none;stroke-dashoffset:0;stroke-opacity:1"
         id="path34184"
         cx="152.30606"
         cy="141.84471"
         rx="4.443943"
         ry="1.849871" />
    </g>
    <g
       inkscape:groupmode="layer"
       id="layer2"
       inkscape:label="Olive"
       style="display:inline;opacity:1;mix-blend-mode:normal">
      <path
         id="path864"
         style="opacity:1;fill:#6e6c3c;fill-opacity:1;stroke-width:0.265;stroke-miterlimit:4;stroke-dasharray:none"
         d="m 107.88606,121.87639 c -2.66566,4.88613 -7.37774,6.93879 -12.929695,8.05381 -4.106581,0.82475 -10.10953,-3.96535 -10.037942,-10.01 0.07051,-5.95342 4.523029,-10.74798 9.952891,-12.98682 8.561446,-3.53006 18.814136,4.31275 13.014746,14.94301 z"
         sodipodi:nodetypes="sssss" />
    </g>
    <g
       inkscape:groupmode="layer"
       id="layer11"
       inkscape:label="toothpick"
       style="display:inline;opacity:1">
      <path
         style="fill:#dcd2bf;fill-opacity:1;fill-rule:evenodd;stroke:none;stroke-width:0.264583px;stroke-linecap:butt;stroke-linejoin:miter;stroke-opacity:1"
         d="m 95.80439,110.46987 0.007,-1.58545 0.5563,-3.78885 0.819414,3.75126 0.03721,1.63883 z"
         id="path32891"
         sodipodi:nodetypes="cccccc" />
      <path
         style="fill:#b5ac9f;fill-opacity:1;fill-rule:evenodd;stroke:none;stroke-width:0.264583px;stroke-linecap:butt;stroke-linejoin:miter;stroke-opacity:1"
         d="m 95.895617,129.69298 -0.01064,4.69909 1.456508,0.15948 v -5.23067 z"
         id="path32924"
         sodipodi:nodetypes="ccccc" />
    </g>
  </g>
</svg>
