<?xml version="1.0" encoding="UTF-8" standalone="no"?>
<!-- Created with Inkscape (http://www.inkscape.org/) -->

<svg
   width="210mm"
   height="297mm"
   viewBox="0 0 210 297"
   version="1.1"
   id="svg5"
   inkscape:version="1.4 (86a8ad7, 2024-10-11)"
   xml:space="preserve"
   sodipodi:docname="conspiracy.svg"
   xmlns:inkscape="http://www.inkscape.org/namespaces/inkscape"
   xmlns:sodipodi="http://sodipodi.sourceforge.net/DTD/sodipodi-0.dtd"
   xmlns:xlink="http://www.w3.org/1999/xlink"
   xmlns="http://www.w3.org/2000/svg"
   xmlns:svg="http://www.w3.org/2000/svg"><sodipodi:namedview
     id="namedview7"
     pagecolor="#ffffff"
     bordercolor="#666666"
     borderopacity="1.0"
     inkscape:pageshadow="2"
     inkscape:pageopacity="0.0"
     inkscape:pagecheckerboard="0"
     inkscape:document-units="mm"
     showgrid="false"
     showborder="false"
     inkscape:showpageshadow="2"
     inkscape:deskcolor="#d1d1d1"
     inkscape:zoom="2.3798686"
     inkscape:cx="354.22123"
     inkscape:cy="601.50379"
     inkscape:window-width="3840"
     inkscape:window-height="2091"
     inkscape:window-x="-8"
     inkscape:window-y="-8"
     inkscape:window-maximized="1"
     inkscape:current-layer="layer1" /><defs
     id="defs2"><rect
       x="232.05079"
       y="656.93251"
       width="379.80957"
       height="138.27541"
       id="rect14" /><rect
       x="235.31911"
       y="680.99924"
       width="335.44858"
       height="94.781307"
       id="rect13" /><rect
       x="238.88455"
       y="554.12896"
       width="443.60029"
       height="128.653"
       id="rect12" /><rect
       x="231.15943"
       y="336.93418"
       width="328.91194"
       height="64.772179"
       id="rect11" /><rect
       x="232.05079"
       y="656.93251"
       width="379.80957"
       height="138.27541"
       id="rect3" /><filter
       style="color-interpolation-filters:sRGB;"
       inkscape:label="Drop Shadow"
       id="filter34"
       x="-0.11191927"
       y="-0.50338578"
       width="1.2352619"
       height="2.0406445"><feFlood
         result="flood"
         in="SourceGraphic"
         flood-opacity="0.498039"
         flood-color="rgb(0,0,0)"
         id="feFlood33" /><feGaussianBlur
         result="blur"
         in="SourceGraphic"
         stdDeviation="0.400000"
         id="feGaussianBlur33" /><feOffset
         result="offset"
         in="blur"
         dx="1.000000"
         dy="1.000000"
         id="feOffset33" /><feComposite
         result="comp1"
         operator="in"
         in="flood"
         in2="offset"
         id="feComposite33" /><feComposite
         result="comp2"
         operator="over"
         in="SourceGraphic"
         in2="comp1"
         id="feComposite34" /></filter><filter
       inkscape:label="Chalk and Sponge"
       inkscape:menu="Distort"
       inkscape:menu-tooltip="Low turbulence gives sponge look and high turbulence chalk"
       width="1"
       height="1"
       y="0"
       x="0"
       style="color-interpolation-filters:sRGB;"
       id="filter1"><feTurbulence
         baseFrequency="0.4"
         type="fractalNoise"
         seed="0"
         numOctaves="5"
         result="result1"
         id="feTurbulence1" /><feDisplacementMap
         xChannelSelector="R"
         yChannelSelector="G"
         scale="0.5"
         in="SourceGraphic"
         in2="result1"
         id="feDisplacementMap1" /></filter><filter
       inkscape:label="Old Postcard"
       inkscape:menu="Image Paint and Draw"
       inkscape:menu-tooltip="Slightly posterize and draw edges like on old printed postcards"
       style="color-interpolation-filters:sRGB;"
       id="filter2"
       x="-0.10095281"
       y="-0.47086776"
       width="1.2019056"
       height="1.9417355"><feFlood
         flood-color="rgb(255,204,0)"
         flood-opacity="0.1"
         result="result1"
         id="feFlood1" /><feBlend
         in2="SourceGraphic"
         mode="darken"
         result="result6"
         id="feBlend1" /><feComposite
         in2="result6"
         result="result8"
         operator="arithmetic"
         k2="1"
         id="feComposite1" /><feColorMatrix
         result="result5"
         values="0"
         type="hueRotate"
         in="result8"
         id="feColorMatrix1" /><feConvolveMatrix
         result="result1"
         order="3 3"
         kernelMatrix="0 -1 0 -1 5.05 -1 0 -1 0 "
         divisor="1"
         in="result5"
         targetX="1"
         targetY="1"
         id="feConvolveMatrix1" /><feGaussianBlur
         result="result2"
         stdDeviation="2"
         in="result1"
         id="feGaussianBlur1" /><feComponentTransfer
         result="result4"
         in="result2"
         id="feComponentTransfer1"><feFuncR
           type="table"
           tableValues="0 0 0.2 0.2 0.4 0.4 0.6 0.6 0.8 0.8 1 1 1"
           id="feFuncR1" /><feFuncG
           type="table"
           tableValues="0 0 0.2 0.2 0.4 0.4 0.6 0.6 0.8 0.8 1 1 1"
           id="feFuncG1" /><feFuncB
           type="table"
           tableValues="0 0 0.2 0.2 0.4 0.4 0.6 0.6 0.8 0.8 1 1 1"
           id="feFuncB1" /></feComponentTransfer><feBlend
         in2="result1"
         result="result3"
         mode="darken"
         in="result4"
         id="feBlend2" /><feColorMatrix
         type="saturate"
         values="1"
         result="result7"
         id="feColorMatrix2" /><feComposite
         in2="SourceGraphic"
         operator="in"
         result="fbSourceGraphic"
         id="feComposite2" /></filter></defs><g
     inkscape:label="Calque 1"
     inkscape:groupmode="layer"
     id="layer1"
     style="display:inline;opacity:1"><g
       id="g4"
       style="display:inline;opacity:1;fill-opacity:1;filter:url(#filter2)"><path
         style="fill-opacity:1;fill-rule:evenodd;stroke:none;stroke-width:0.264583px;stroke-linecap:butt;stroke-linejoin:miter;stroke-opacity:1"
         d="m 99.288247,145.11964 c 3.305733,1.57226 5.808643,3.60853 11.988483,4.36302 6.17984,0.75449 13.51888,0.92164 19.77117,-2.3977 6.2523,-3.31933 12.69343,-12.40394 14.03243,-17.60932 1.339,-5.20538 1.96841,-7.34722 1.69017,-7.62546 -5.81007,-1.07795 -18.68468,3.9922 -25.43131,7.46825 -6.74663,3.47604 -17.28933,7.56458 -22.050953,15.80121 z"
         id="path12"
         sodipodi:nodetypes="szzzszss" /><path
         style="fill-opacity:1;fill-rule:evenodd;stroke:none;stroke-width:0.264583px;stroke-linecap:butt;stroke-linejoin:miter;stroke-opacity:1"
         d="m 128.12988,127.6018 -7.17082,-3.80777 -0.4725,1.30632 2.97395,4.16908 -1.19514,0.58367 -2.41807,-3.69659 -0.83382,-0.11117 0.58368,4.30805 -1.00059,0.97279 -1.08396,-4.94731 -1.05617,-0.19456 -1.47307,6.67053 -1.22294,1.11176 1.61205,-7.69891 -0.20498,-2.4667 0.95889,-0.61494 -1.01795,-1.78229 1.79965,-1.1187 1.06848,1.69437 1.04106,-0.65522 10.66871,5.63833 z"
         id="path1"
         sodipodi:nodetypes="cccccccccccccccccccccc" /><path
         style="fill-opacity:1;fill-rule:evenodd;stroke:none;stroke-width:0.264583px;stroke-linecap:butt;stroke-linejoin:miter;stroke-opacity:1"
         d="m 120.08139,148.30346 4.52025,4.83471 0.43237,5.77806 8.56882,0.31445 3.49828,-2.31909 3.38036,-0.0786 -0.23584,-1.37573 -1.41503,-0.0786 0.0393,-1.33642 -1.49364,-0.39307 -0.82544,-2.71215 1.25781,-3.77342 -0.86475,-0.86475 -1.65087,-4.36302 0.27515,5.26707 -3.18383,-4.00926 -5.46361,3.38036 4.04858,2.27978 -0.86475,1.41503 -2.83007,-2.75146 -2.437,0.23584 0.55029,3.53759 -4.28441,-3.89134 z"
         id="path3" /><path
         style="fill-opacity:1;fill-rule:evenodd;stroke:none;stroke-width:0.264583px;stroke-linecap:butt;stroke-linejoin:miter;stroke-opacity:1"
         d="m 117.95731,169.9597 v 3.69009 l 3.77998,0.0343 -0.13897,-3.08512 -0.80603,-1.02837 6.00348,0.0556 -0.16676,0.88941 -2.50145,2.41807 v 0.72264 l 0.94499,-0.0278 1.22293,-1.05617 0.19456,0.8894 4.03012,0.13897 -0.19456,-3.89114 9.1164,-0.19456 -0.75044,0.58367 -0.33352,3.69659 3.61321,0.11117 -0.19456,-3.66879 -0.86161,-0.11118 -0.0556,-0.63926 0.58367,-0.16676 -0.16676,-0.4447 -0.83382,-0.36132 -7.02491,-6.46903 -0.0347,-2.31384 -0.99364,-0.0173 -0.0347,-0.9485 -5.69775,-0.24325 -0.0139,1.16044 -1.20904,-0.0903 v 2.69601 l -4.94731,4.78055 z"
         id="path4"
         sodipodi:nodetypes="cccccccccccccccccccccccccccccccccc" /><rect
         style="opacity:1;fill:#b0ac70;fill-opacity:1;stroke:none;stroke-width:0.797999;stroke-linecap:round;stroke-linejoin:round;stroke-miterlimit:10"
         id="rect5"
         width="7.9768496"
         height="1.4730767"
         x="125.44777"
         y="160.3569" /><path
         id="rect6"
         style="opacity:1;fill:#b0ac70;stroke-width:0.458518;stroke-linecap:round;stroke-linejoin:round;stroke-miterlimit:10;fill-opacity:1"
         transform="rotate(-32.40765)"
         d="m 30.86895,166.2186 h 4.583372 l 0.415264,0.71084 -5.368572,0.0571 z"
         sodipodi:nodetypes="ccccc" /></g><rect
       style="display:inline;opacity:1;fill:#e0e1d8;fill-opacity:1;stroke:none;stroke-width:0.502215;stroke-linecap:round;stroke-linejoin:round;stroke-miterlimit:10"
       id="rect1"
       width="101.72675"
       height="132.90163"
       x="54.297314"
       y="81.507545"
       sodipodi:insensitive="true"
       inkscape:export-filename="rect1.png"
       inkscape:export-xdpi="1500"
       inkscape:export-ydpi="1500" /><rect
       style="opacity:1;fill:#633c3d;fill-opacity:1;stroke:none;stroke-width:0.499999;stroke-linecap:round;stroke-linejoin:round;stroke-miterlimit:10;filter:url(#filter1)"
       id="rect2"
       width="94.137947"
       height="125.65623"
       x="58.091717"
       y="85.130241"
       sodipodi:insensitive="true" /><path
       style="display:inline;opacity:1;fill:#4d2b28;fill-opacity:1;fill-rule:evenodd;stroke:none;stroke-width:0.264583px;stroke-linecap:butt;stroke-linejoin:miter;stroke-opacity:1;filter:url(#filter2)"
       d="m 84.587613,207.02739 c 9.239098,-3.94639 25.278837,-6.83168 30.973527,-7.74338 5.69469,-0.9117 29.67699,-4.30231 30.6678,-1.10863 0.99081,3.19368 -2.50418,4.3729 -4.86307,3.74219 1.02146,-1.96714 2.57335,-1.30961 1.98975,-2.31991 -0.64481,-1.11625 -18.29643,0.41723 -27.28349,1.76962 -8.98706,1.35239 -25.37016,4.26889 -31.484517,5.66011 z"
       id="path6"
       sodipodi:nodetypes="czzczzc"
       sodipodi:insensitive="true" /><g
       id="g12"
       style="opacity:0.25"
       sodipodi:insensitive="true"><path
         style="display:inline;fill:#000000;fill-opacity:1;fill-rule:evenodd;stroke:none;stroke-width:0.264583px;stroke-linecap:butt;stroke-linejoin:miter;stroke-opacity:1"
         d="m 97.165696,114.73571 -5.031235,5.30637 3.105214,0.90405 -1.021969,4.83471 3.6162,-5.69945 -3.341055,-1.02197 z"
         id="path2" /><use
         x="0"
         y="0"
         xlink:href="#path2"
         id="use5"
         transform="matrix(1.1853107,0,0,1.1761476,-31.915446,-12.372539)" /><use
         x="0"
         y="0"
         xlink:href="#use5"
         id="use6"
         transform="rotate(-29.198122,73.572188,146.4775)" /><use
         x="0"
         y="0"
         xlink:href="#use6"
         id="use7"
         transform="matrix(0.19737496,-0.73170108,-0.76285687,-0.13882146,147.0911,206.5056)" /><use
         x="0"
         y="0"
         xlink:href="#path2"
         id="use8"
         transform="rotate(-63.72581,99.439362,107.40527)" /><use
         x="0"
         y="0"
         xlink:href="#use7"
         id="use9"
         transform="rotate(130.36549,85.201946,140.62938)" /><use
         x="0"
         y="0"
         xlink:href="#use8"
         id="use10"
         transform="rotate(65.278078,118.29983,124.09665)" /><use
         x="0"
         y="0"
         xlink:href="#use9"
         id="use11"
         transform="matrix(1.6588732,-0.24272542,0.21942186,1.8350528,-62.109196,-92.758188)" /></g><text
       xml:space="preserve"
       transform="matrix(0.26458333,0,0,0.26458333,-17.064664,-60.374802)"
       id="text12"
       style="font-weight:900;font-size:80px;line-height:125%;font-family:Arial;-inkscape-font-specification:'Arial, Heavy';text-align:center;letter-spacing:7px;word-spacing:0px;white-space:pre;shape-inside:url(#rect12);display:inline;fill:#aba5a3;fill-opacity:1;stroke:none;stroke-width:1px;stroke-linecap:butt;stroke-linejoin:miter;stroke-opacity:1;filter:url(#filter2)"
       sodipodi:insensitive="true"><tspan
         x="291.1377"
         y="625.85522"
         id="tspan1">HAARP</tspan></text><g
       id="g2"
       style="filter:url(#filter34)"><g
         id="g13"
         style="filter:url(#filter2)"><text
           xml:space="preserve"
           transform="matrix(0.2558122,-0.05192368,0.05119794,0.25943837,-56.334928,28.574653)"
           id="text13"
           style="font-style:normal;font-variant:normal;font-weight:normal;font-stretch:normal;font-size:49.3333px;line-height:125%;font-family:'Marketing Script';-inkscape-font-specification:'Marketing Script, Normal';font-variant-ligatures:normal;font-variant-caps:normal;font-variant-numeric:normal;font-variant-east-asian:normal;text-align:center;letter-spacing:0px;word-spacing:0px;white-space:pre;shape-inside:url(#rect14);display:inline;fill:#aba5a3;fill-opacity:1;stroke:none;stroke-width:1px;stroke-linecap:butt;stroke-linejoin:miter;stroke-opacity:1"><tspan
             x="326.27412"
             y="697.04731"
             id="tspan2">It's not a</tspan></text><text
           xml:space="preserve"
           transform="matrix(0.25766787,-0.04175185,0.04088307,0.26126246,-26.109515,30.167669)"
           id="text1"
           style="font-style:normal;font-variant:normal;font-weight:normal;font-stretch:normal;font-size:60.4238px;line-height:125%;font-family:'Marketing Script';-inkscape-font-specification:'Marketing Script, Normal';font-variant-ligatures:normal;font-variant-caps:normal;font-variant-numeric:normal;font-variant-east-asian:normal;text-align:center;letter-spacing:0px;word-spacing:0px;white-space:pre;shape-inside:url(#rect3);display:inline;fill:#aba5a3;fill-opacity:1;stroke:none;stroke-width:1px;stroke-linecap:butt;stroke-linejoin:miter;stroke-opacity:1"><tspan
             x="276.39515"
             y="706.06561"
             id="tspan3">Conspiracy!</tspan></text></g></g><use
       x="0"
       y="0"
       xlink:href="#g4"
       id="use1"
       transform="matrix(0.64935486,0,0,0.64935486,-2.6969622,60.792228)"
       style="display:inline;opacity:1;fill:#2d2925;fill-opacity:1"
       sodipodi:insensitive="true" /><use
       x="0"
       y="0"
       xlink:href="#g4"
       id="use4"
       transform="matrix(0.83749322,0,0,0.83749322,-5.8777574,28.057718)"
       style="display:inline;opacity:1;fill:#3d3835;fill-opacity:1"
       sodipodi:insensitive="true" /><use
       x="0"
       y="0"
       xlink:href="#g4"
       id="use13"
       style="display:inline;fill:#635c5b;fill-opacity:1"
       sodipodi:insensitive="true" /></g></svg>
