<?xml version="1.0" encoding="UTF-8" standalone="no"?>
<!-- Created with Inkscape (http://www.inkscape.org/) -->

<svg
   width="210mm"
   height="297mm"
   viewBox="0 0 210 297"
   version="1.1"
   id="svg5"
   inkscape:version="1.4 (86a8ad7, 2024-10-11)"
   sodipodi:docname="red_logo.svg"
   inkscape:export-filename="K:\Merchandise\TF2\teams\red\team_red.png"
   inkscape:export-xdpi="1040.38"
   inkscape:export-ydpi="1040.38"
   xmlns:inkscape="http://www.inkscape.org/namespaces/inkscape"
   xmlns:sodipodi="http://sodipodi.sourceforge.net/DTD/sodipodi-0.dtd"
   xmlns:xlink="http://www.w3.org/1999/xlink"
   xmlns="http://www.w3.org/2000/svg"
   xmlns:svg="http://www.w3.org/2000/svg">
  <sodipodi:namedview
     id="namedview7"
     pagecolor="#ffffff"
     bordercolor="#666666"
     borderopacity="1.0"
     inkscape:pageshadow="2"
     inkscape:pageopacity="0.0"
     inkscape:pagecheckerboard="0"
     inkscape:document-units="mm"
     showgrid="false"
     showborder="false"
     inkscape:zoom="1.8116735"
     inkscape:cx="629.52844"
     inkscape:cy="425.29738"
     inkscape:window-width="3840"
     inkscape:window-height="2091"
     inkscape:window-x="-8"
     inkscape:window-y="-8"
     inkscape:window-maximized="1"
     inkscape:current-layer="svg5"
     inkscape:snap-global="false"
     inkscape:showpageshadow="2"
     inkscape:deskcolor="#d1d1d1" />
  <defs
     id="defs2">
    <rect
       x="216.22945"
       y="502.71395"
       width="441.82624"
       height="78.451479"
       id="rect4337" />
  </defs>
  <g
     inkscape:groupmode="layer"
     id="layer3"
     inkscape:label="design"
     style="display:inline;opacity:1">
    <rect
       style="fill:#a3574b;fill-opacity:1;stroke-width:15"
       id="rect1075"
       width="200"
       height="144.5"
       x="0"
       y="26.25"
       ry="1.8071975" />
    <rect
       style="fill:#dbcfad;fill-opacity:1;stroke-width:14.9032"
       id="rect6623"
       width="192.04736"
       height="67.654701"
       x="3.9763184"
       y="30.158007"
       ry="0" />
    <circle
       style="display:inline;opacity:1;fill:#a3574b;fill-opacity:1;stroke-width:15.7131"
       id="path12324"
       cx="102.1841"
       cy="104.7142"
       r="57.262341" />
  </g>
  <g
     inkscape:groupmode="layer"
     id="layer6"
     inkscape:label="wear"
     style="display:none">
    <path
       style="fill:#a36c60;fill-opacity:0.544554;fill-rule:evenodd;stroke:none;stroke-width:0.264583px;stroke-linecap:butt;stroke-linejoin:miter;stroke-opacity:1"
       d="m 115.37445,123.40685 c 0.59706,13.50402 -1.4268,28.64612 2.11763,40.30803 l 36.1458,-2.04461 c 0.6818,-3.35927 4.14037,-4.41163 3.13993,-11.17233 -1.00044,-6.7607 -1.15324,-17.78954 -0.43813,-26.72598 l -4.89246,-0.51116 -0.43813,-1.46043 c 0,0 -27.38318,-0.87626 -27.96735,-0.14604 -0.62069,0.87626 0.40162,1.46043 -0.29209,1.82554 -1.42393,0.58417 -7.3752,-0.073 -7.3752,-0.073 z"
       id="path40696"
       sodipodi:nodetypes="ccczcccccc" />
  </g>
  <g
     inkscape:groupmode="layer"
     id="layer4"
     inkscape:label="bomb"
     style="display:inline;opacity:1">
    <path
       id="circle32455"
       style="fill:#f0e5bb;fill-opacity:1;stroke-width:56.8603"
       d="M 386.20703,188.55859 A 207.21218,207.21218 0 0 0 178.99609,395.76953 207.21218,207.21218 0 0 0 386.20703,602.98242 207.21218,207.21218 0 0 0 593.41992,395.76953 207.21218,207.21218 0 0 0 386.20703,188.55859 Z m 0,4.85938 A 202.35179,202.35179 0 0 1 588.55859,395.76953 202.35179,202.35179 0 0 1 386.20703,598.12109 202.35179,202.35179 0 0 1 183.85547,395.76953 202.35179,202.35179 0 0 1 386.20703,193.41797 Z"
       transform="scale(0.26458333)" />
    <path
       id="path6609"
       style="display:inline;opacity:1;fill:#a3574b;fill-opacity:1;fill-rule:evenodd;stroke:none;stroke-width:0.264583px;stroke-linecap:butt;stroke-linejoin:miter;stroke-opacity:1"
       d="m 42.244886,62.428674 21.332457,9.536519 M 42.244886,62.428674 c -3.128689,-1.398714 -7.904661,2.477357 -10.667364,8.657393 -2.762766,6.180009 -2.466089,12.323774 0.662643,13.722394 l 21.332457,9.536519 c 3.12869,1.398716 7.904664,-2.477357 10.667366,-8.657395 2.762766,-6.18001 2.466087,-12.323773 -0.662645,-13.722392"
       sodipodi:nodetypes="cccccccc" />
    <path
       id="path8062"
       style="display:inline;opacity:1;fill:none;fill-rule:evenodd;stroke:#f0e5bb;stroke-width:0.916749;stroke-linecap:butt;stroke-linejoin:miter;stroke-miterlimit:4;stroke-dasharray:none;stroke-opacity:1"
       d="m 42.157784,64.763593 17.560706,7.850385 m -25.79651,10.57247 17.560707,7.850386 M 33.376499,71.890282 c -2.274286,5.08733 -2.030065,10.144834 0.545481,11.296166 2.575512,1.151411 6.507057,-2.039347 8.78129,-7.126701 2.274284,-5.08733 2.030064,-10.144834 -0.545486,-11.296154 -2.575507,-1.151422 -6.507052,2.039337 -8.781285,7.126689 z m 18.106188,19.146552 c 2.575512,1.151412 6.507058,-2.039347 8.78129,-7.1267 2.274285,-5.08733 2.030065,-10.144834 -0.545487,-11.296156"
       sodipodi:nodetypes="cccccccccccc" />
    <path
       id="path11984"
       style="fill:#a3574b;stroke:#f0e5bb;stroke-width:1.88976;stroke-miterlimit:4;stroke-dasharray:none"
       transform="matrix(0.26458333,0,0,0.26458333,0.87626166,0.58417444)"
       d="m 157.70679,226.72339 -35.65825,-29.73387 -16.28156,33.46335 -2.83698,-36.30125 -46.319977,10.9605 39.881809,-31.75519 -29.169982,-22.72161 35.52064,6.72553 -6.862292,-38.90417 23.168462,33.63691 13.35427,-28.77968 -0.67579,32.20305 37.73326,-12.32658 -31.29508,27.46182 32.68274,9.25606 -33.37397,5.56912 z"
       sodipodi:nodetypes="ccccccccccccccccc" />
    <path
       style="fill:#eae2b8;fill-opacity:1;fill-rule:evenodd;stroke:none;stroke-width:0.264583px;stroke-linecap:butt;stroke-linejoin:miter;stroke-opacity:1"
       d="m 36.58284,74.86961 c -1.973851,-1.831036 -5.147015,-4.389426 -5.318324,-8.029122 -0.18419,-3.913384 1.576998,-7.693497 1.807196,-11.540246 -0.04317,-2.290387 0.3581,-4.254811 -1.885677,-6.011717 0.666797,-0.681724 1.259249,-1.462576 1.420971,-2.817733 2.528982,2.790034 2.630148,4.086034 2.772855,7.280423 0.142706,3.194389 -1.268697,7.498306 -1.744064,10.86068 -0.547259,3.870882 2.217837,5.297677 4.247295,7.883837 0.08221,1.165482 -0.625178,2.172214 -1.300252,2.373878 z"
       id="path14008"
       sodipodi:nodetypes="csccczscc" />
    <ellipse
       style="fill:#eae2b8;fill-opacity:1;stroke:none;stroke-width:0.563655;stroke-miterlimit:4;stroke-dasharray:none;stroke-opacity:1"
       id="path40489"
       cx="50.408298"
       cy="26.248003"
       rx="0.78742176"
       ry="1.5490264"
       transform="rotate(29.103158)" />
  </g>
  <g
     inkscape:groupmode="layer"
     id="layer5"
     inkscape:label="RED"
     style="display:inline;opacity:1">
    <path
       id="path44281"
       style="display:inline;fill:#efe6ba;fill-opacity:1;stroke-width:0.738187"
       d="m 507.40234,268.76953 c -0.61437,-0.003 -2.02772,0.3331 -5.28125,1.10352 -2.72247,0.64483 -7.60745,1.79984 -10.85547,2.5664 -5.37943,1.26958 -6.19175,1.70801 -9.11132,4.91797 -1.76281,1.93814 -3.96164,4.68641 -4.88672,6.10742 -2.40507,3.69457 -3.80959,4.66001 -9.625,6.61719 -8.54071,2.87441 -19.48062,8.2013 -19.96289,9.7207 -2.12912,5.37091 -4.63556,10.67336 -6.59961,15.14844 -2.63248,5.97333 -4.67442,10.97206 -4.53711,11.10938 0.1372,0.13731 2.20791,-1.05197 4.60156,-2.64258 5.35748,-3.56016 18.16083,-10.42578 19.44141,-10.42578 0.61481,0 0.7476,0.44635 0.38476,1.29101 -1.75578,4.08715 -6.62369,17.49298 -7.84179,21.59375 -0.78392,2.63903 -1.92603,6.45827 -2.53907,8.48828 -2.5765,8.53162 -7.67081,29.61466 -9.80859,40.59961 -1.26421,6.49607 -2.6215,13.47193 -3.01563,15.50196 -0.39412,2.03002 -0.98021,5.35279 -1.30468,7.38281 -0.52698,3.29699 -0.77326,3.66589 -2.29297,3.45117 -5.79772,-0.81914 -17.37765,-8.36198 -20.21094,-13.16406 -0.83127,-1.4089 -1.75937,-2.29131 -2.06445,-1.96094 -0.49123,0.53186 -3.77189,25.7544 -3.9668,30.49805 -0.0608,1.48308 0.56097,2.15113 3.16797,3.40234 2.77516,1.33191 13.1699,3.58122 19.26953,4.16992 1.82937,0.17651 1.84372,0.23261 1.5957,6.3418 l -0.25,6.16211 2.09571,-0.4707 c 1.1526,-0.25966 5.91686,-1.55122 10.58593,-2.86914 l 8.48829,-2.39649 v -4.36523 -4.36719 c 0,0 0.84222,-0.17696 2.95312,-0.61914 2.11091,-0.44219 12.18921,-3.6338 17.32617,-4.72852 5.13696,-1.09472 6.0907,-2.09216 9.80274,-3.63671 3.71204,-1.54455 17.93617,-8.48392 25.16992,-13.36915 4.52802,-3.05794 8.39856,-5.77279 8.60156,-6.0332 0.20296,-0.26041 2.93851,-2.74087 6.07813,-5.51172 16.92551,-14.93745 31.01693,-37.73696 36.38476,-58.86719 4.93276,-18.73858 -7.3484,-44.87343 -22.60351,-52.86718 -3.41163,-1.69938 -7.69837,-3.41817 -9.52539,-3.82032 -6.10678,-1.34413 -17.88721,-1.7388 -25.72852,-0.86328 -4.20416,0.46942 -7.78577,0.71034 -7.95898,0.53711 -0.60492,-0.60491 10.03964,-10.65933 12.25781,-11.57812 1.23042,-0.50965 2.23633,-1.21747 2.23633,-1.57422 0,-0.36891 0.007,-0.57748 -0.47071,-0.58008 z m -2.95703,31.375 c 3.99812,0.0167 7.87448,0.33467 10.81055,0.9668 15.59732,3.35807 22.16515,15.91851 19.59961,37.47851 -1.09077,9.16686 -1.95064,12.27154 -5.15039,18.58594 -12.61092,24.88642 -39.74847,46.10838 -67.13281,52.49805 -3.30161,0.77038 -6.58004,1.62263 -7.28711,1.89453 -0.84371,0.32428 -1.44742,0.0732 -1.75586,-0.73047 -0.25852,-0.67366 -0.11427,-3.61415 0.32226,-6.53516 0.43635,-2.92104 1.16541,-8.30103 1.61914,-11.95507 3.01849,-24.30717 15.52598,-68.83126 23.74414,-84.52539 0.98536,-1.88173 2.35927,-3.42114 3.19727,-3.58008 0.80848,-0.15334 1.63684,-0.51598 1.83984,-0.80469 0.20296,-0.28872 2.86124,-1.14213 5.90625,-1.89648 3.80556,-0.94276 9.14667,-1.41801 14.28711,-1.39649 z"
       transform="scale(0.26458333)"
       sodipodi:nodetypes="ccssssccsssssssssssscssccccccczzzsssccssssscssssscsccsssss" />
    <path
       id="path44277"
       style="display:inline;fill:#efe6ba;fill-opacity:1;stroke-width:0.738187"
       d="m 410.36328,293.25781 c -2.44228,-0.008 -5.06686,0.30176 -8.05078,0.91016 -15.67982,3.19698 -31.82317,15.67103 -38.58203,29.81445 -4.63705,9.70337 -3.26315,22.25548 3.42578,31.30274 1.40711,1.90321 1.44249,2.17292 0.35547,2.78125 -2.50142,1.39986 -13.7344,10.63373 -18.23047,14.98632 -5.40898,5.23639 -11.85214,12.94472 -16.12891,19.29493 -3.70309,5.49845 -8.72816,15.43975 -9.42187,18.63867 -2.48517,6.46967 -3.73598,14.17904 -3.07617,21.28515 0.25644,2.18204 1.18454,5.88327 2.06054,8.22461 3.10245,8.29202 19.19298,17.15481 22.45899,17.87696 3.26601,0.72215 7.1455,0.50682 9.15625,0 2.01075,-0.50682 22.49958,-8.46591 35.19922,-18.63477 3.91396,-3.13398 4.63405,-4.08885 5.04492,-6.69922 0.26343,-1.67429 1.08236,-5.20278 1.82031,-7.84179 0.73799,-2.63902 1.52252,-5.62954 1.74219,-6.64454 1.79244,-8.28264 2.83637,-12.4777 3.54492,-14.23242 0.45611,-1.12955 0.63613,-2.24859 0.39844,-2.48633 -0.23773,-0.23773 -4.24166,3.14282 -8.89649,7.51172 -15.25445,14.31761 -28.25594,22.74723 -36.60742,23.73633 -3.44692,0.81034 -4.71583,-1.13189 -6.78125,-2.15625 -2.06542,-1.02436 -5.0479,-5.2042 -6.22265,-8.49609 -1.22347,-3.42837 -1.31995,-9.92466 -0.22461,-15.09766 1.5023,-7.09512 9.44223,-21.65182 15.82226,-29.00976 14.00889,-16.15615 14.80955,-16.8844 16.78906,-15.26954 1.80635,1.4736 9.05506,3.08985 13.86133,3.08985 5.20378,-0.65993 21.34633,-1.51837 19.8711,-8.94531 -1.47523,-7.42694 -12.20884,-9.59998 -17.45899,-9.09375 -6.70384,0.68715 -12.55018,4.98248 -17.18554,2.93359 -1.36747,-0.84514 -3.03363,-5.66492 -3.5,-10.12695 -0.70037,-6.70072 0.70273,-10.34298 6.23828,-16.21094 5.38806,-5.71166 9.96002,-8.23187 17.24218,-9.5 7.8725,-1.37094 16.56755,1.43946 22.61328,7.30664 1.69894,1.64876 3.29926,3.8358 3.55665,4.86133 0.25738,1.02553 0.84706,1.84457 1.31054,1.82031 0.853,-0.0447 11.62283,-21.74761 11.57422,-23.32422 -0.0487,-1.58237 -7.53215,-7.61772 -12.2168,-9.85351 -3.86893,-1.84647 -7.43148,-2.73928 -11.50195,-2.75196 z m -17.33789,61.16992 c 2.47846,-0.0237 3.6302,0.2387 4.49023,0.89844 1.1765,0.90252 1.31189,1.40065 0.66797,2.45117 -0.44443,0.72505 -1.60743,1.54119 -2.58398,1.81446 -2.87358,0.80406 -8.95979,0.60434 -11.69727,-0.38477 -5.55314,-2.00648 -2.72614,-4.14519 6.16407,-4.66406 1.15965,-0.0677 2.13283,-0.10732 2.95898,-0.11524 z"
       transform="scale(0.26458333)"
       sodipodi:nodetypes="cssssssccszzssscsscczssssczccsssssssscsssssss" />
    <path
       id="path44271"
       style="display:inline;fill:#efe6ba;fill-opacity:1;stroke-width:0.738187"
       d="m 327.95312,320.51172 c -2.26412,-0.008 -4.49857,0.26183 -6.47265,0.83008 -2.03002,0.58435 -6.0154,1.68611 -8.85742,2.44726 -2.84203,0.76116 -3.77533,1.28976 -5.90625,2.25 -1.94364,0.87585 -13.65625,8.24233 -13.65625,7.36328 0,-1.23992 3.41675,-6.24428 6.56054,-9.61132 l 2.66797,-2.85743 -2.95312,0.51563 c -1.62402,0.28361 -4.44837,0.9728 -6.27539,1.5332 -1.82702,0.5604 -5.74564,1.71802 -8.70899,2.57031 -5.1142,1.47092 -5.51468,1.74542 -7.86523,5.41993 -2.84664,4.44999 -4.15992,7.36058 -7.04492,15.60742 -1.7311,4.94836 -6.75581,24.07749 -7.52735,28.65625 -0.17117,1.01592 -0.92039,0.43047 -3.07617,-2.40235 -4.34355,-5.70765 -14.17966,-15.29092 -18.9375,-18.45117 -4.97469,-3.30428 -10.4135,-4.90588 -14.23242,-4.18945 -9.06933,1.70141 -13.94333,15.37049 -8.71289,24.4375 3.12845,5.42319 9.84838,11.43842 17.79492,15.93164 3.8542,2.17931 5.83318,3.48443 7.49785,4.09607 9.62812,3.53759 20.07049,2.36486 12.83223,15.26331 -2.90783,7.08068 -4.71397,15.13642 -8.95508,21.75976 -3.03089,4.59787 -6.2781,6.79505 -10.04688,6.79883 l -2.72851,0.004 -3.33008,10.51953 c -10.48694,33.11573 -14.00689,44.81342 -13.60547,45.21484 0.36514,0.3651 7.56521,-1.3197 7.9961,-1.87109 0.20299,-0.25966 1.40125,-0.82424 2.66406,-1.25586 8.3892,-2.86738 21.81874,-18.84106 26.78125,-27.32422 4.96251,-8.48316 5.50949,-11.82996 7.85156,-16.79492 0.84593,-1.78356 4.99228,-16.02069 8.38281,-28.78907 l 0.58789,-2.21484 1.17188,2.58398 c 4.43577,9.77549 4.92837,12.15472 5.70898,13.72266 2.49196,5.91683 5.64602,12.4717 8.53321,17.83594 2.00592,3.95852 3.83304,7.36341 4.06054,7.5664 0.22753,0.20297 1.98726,2.59153 3.91016,5.3086 4.07523,5.75826 10.14529,11.5273 14.53711,13.8164 2.53466,1.32118 7.28519,4.14348 13.82422,4.92969 9.48194,1.14004 11.64226,1.8466 17.94922,1.22656 l 5.08593,-0.5 c 6.52973,-0.64342 20.42042,-0.67131 21.4375,-0.043 0.67526,0.41733 13.09582,-3.65372 23.60547,-7.73633 1.82703,-0.70976 6.3108,-2.24786 9.96485,-3.41992 3.65404,-1.17207 6.81067,-2.33328 7.01367,-2.58008 0.20296,-0.24681 2.50967,-1.10901 5.12695,-1.91602 2.61725,-0.807 4.87118,-1.80296 5.00781,-2.21289 0.13682,-0.40993 -2.66846,-1.54276 -6.23437,-2.51758 -9.1756,-2.50832 -21.41207,-2.29444 -45.60742,0.79688 -14.91728,1.90594 -20.43735,2.3106 -28.79102,2.10937 -9.84616,-0.23735 -10.56929,-0.36214 -15.32617,-2.61523 -7.8724,-4.36265 -14.92692,-11.79535 -19.9043,-17.93555 -4.43157,-5.62522 -12.01029,-18.46663 -18.24414,-30.91601 -3.27219,-6.53477 -5.94922,-12.01827 -5.94922,-12.18555 0,-0.16743 1.74348,-0.71711 3.875,-1.22266 3.50898,-0.83225 7.82333,-2.29806 18.64063,-6.33789 2.03002,-0.75813 3.80389,-1.63816 3.94336,-1.95508 0.13946,-0.31672 1.96701,-1.43715 4.06054,-2.48828 6.59004,-3.30867 13.15281,-8.35407 20.88282,-16.05664 12.2414,-12.19794 18.51783,-22.76136 19.24609,-32.39062 0.67625,-8.94155 -2.14876,-14.17392 -9.74805,-18.05664 -2.87549,-1.46919 -6.73229,-2.25446 -10.50586,-2.26758 z m -16.45703,17.94726 c 4.89613,0 6.06678,0.26671 8.63282,1.96485 10.30243,6.81782 5.79021,23.61786 -10.21094,38.01953 -6.51238,5.8614 -13.69087,9.45685 -24.16797,12.10547 -8.64424,2.18528 -11.89394,2.62623 -11.86719,1.61328 0.13104,-4.96112 4.14831,-22.22598 5.92383,-25.45703 0.38741,-0.705 0.70508,-1.77829 0.70508,-2.38477 0,-1.82334 3.85009,-10.92811 5.69922,-13.47656 2.41117,-3.32306 8.12005,-7.04127 17.48047,-11.38867 1.20924,-0.56163 4.60729,-0.9961 7.80468,-0.9961 z m -78.2832,24.73047 c 6.28337,0 13.89466,6.55116 21.92773,18.875 3.60667,5.53312 4.21015,6.94377 4.06055,9.49805 -0.0966,1.64984 -0.40667,3.22847 -0.68945,3.50781 -0.28279,0.27931 -3.67032,-1.17556 -7.52734,-3.23242 -16.69381,-8.90237 -23.05469,-15.17352 -23.05469,-22.73047 0,-4.83381 0.96817,-5.91797 5.2832,-5.91797 z"
       transform="scale(0.26458333)"
       sodipodi:nodetypes="sssssscsssssssssssscccccssszccccccsssssccsssscsscccssssssssssssssssssssssssssss" />
    <g
       id="g1941">
      <g
         id="g1984" />
    </g>
  </g>
  <g
     inkscape:groupmode="layer"
     id="layer2"
     inkscape:label="RED 1"
     style="display:inline;opacity:1">
    <text
       xml:space="preserve"
       id="text4335"
       style="font-style:normal;font-variant:normal;font-weight:normal;font-stretch:normal;font-size:5.29167px;line-height:125%;font-family:'New Era Casual';-inkscape-font-specification:'New Era Casual, Normal';font-variant-ligatures:normal;font-variant-caps:normal;font-variant-numeric:normal;font-variant-east-asian:normal;letter-spacing:0.79375px;word-spacing:2.64583px;white-space:pre;fill:#efe6ba;fill-opacity:1;stroke:none;stroke-width:1px;stroke-linecap:butt;stroke-linejoin:miter;stroke-opacity:1"><textPath
         xlink:href="#path16112"
         id="textPath16216"><tspan
           id="tspan4339"
           style="font-style:normal;font-variant:normal;font-weight:normal;font-stretch:normal;font-size:5.29167px;font-family:'New Era Casual';-inkscape-font-specification:'New Era Casual, Normal';font-variant-ligatures:normal;font-variant-caps:normal;font-variant-numeric:normal;font-variant-east-asian:normal;fill:#efe6ba;fill-opacity:1">RELIABLE EXCAVATION DEMOLITION</tspan></textPath></text>
    <path
       style="display:inline;fill:none;fill-rule:evenodd;stroke:none;stroke-width:0.264583px;stroke-linecap:butt;stroke-linejoin:miter;stroke-opacity:1"
       d="m 68.983309,141.58101 c 9.46309,8.92422 26.256901,13.85537 37.331831,12.71452 11.07493,-1.14085 36.66531,-11.71452 42.65645,-32.5247"
       id="path16112"
       sodipodi:nodetypes="czc" />
  </g>
</svg>
