<?xml version="1.0" encoding="UTF-8" standalone="no"?>
<!-- Created with Inkscape (http://www.inkscape.org/) -->

<svg
   width="210mm"
   height="297mm"
   viewBox="0 0 210 297"
   version="1.1"
   id="svg5"
   inkscape:version="1.1.1 (3bf5ae0d25, 2021-09-20)"
   sodipodi:docname="red_logo_alt.svg"
   inkscape:export-filename="C:\Users\Guillaume\image.png"
   inkscape:export-xdpi="1000"
   inkscape:export-ydpi="1000"
   xmlns:inkscape="http://www.inkscape.org/namespaces/inkscape"
   xmlns:sodipodi="http://sodipodi.sourceforge.net/DTD/sodipodi-0.dtd"
   xmlns="http://www.w3.org/2000/svg"
   xmlns:svg="http://www.w3.org/2000/svg">
  <sodipodi:namedview
     id="namedview7"
     pagecolor="#ffffff"
     bordercolor="#666666"
     borderopacity="1.0"
     inkscape:pageshadow="2"
     inkscape:pageopacity="0.0"
     inkscape:pagecheckerboard="0"
     inkscape:document-units="mm"
     showgrid="false"
     showborder="false"
     inkscape:zoom="1.8116734"
     inkscape:cx="421.98554"
     inkscape:cy="-324.83779"
     inkscape:window-width="3840"
     inkscape:window-height="2091"
     inkscape:window-x="-8"
     inkscape:window-y="-8"
     inkscape:window-maximized="1"
     inkscape:current-layer="layer2" />
  <defs
     id="defs2">
    <rect
       x="369.27185"
       y="-525.48102"
       width="351.60862"
       height="328.97761"
       id="rect31198" />
  </defs>
  <g
     inkscape:groupmode="layer"
     id="layer2"
     inkscape:label="Calque"
     style="display:inline;opacity:1">
    <ellipse
       style="display:inline;fill:#e0ddcb;fill-opacity:1;stroke:#662b18;stroke-width:2.65022;stroke-linecap:round;stroke-miterlimit:4;stroke-dasharray:none;stroke-opacity:1"
       id="path1045"
       cx="135.6015"
       cy="-92.445602"
       rx="81.386871"
       ry="66.271355" />
    <ellipse
       style="fill:#bb3510;fill-opacity:1;stroke:none;stroke-width:2.95982;stroke-linecap:round;stroke-miterlimit:4;stroke-dasharray:none;stroke-opacity:1"
       id="path37768"
       cx="136.67577"
       cy="-92.42524"
       rx="54.164284"
       ry="53.389774" />
    <g
       aria-label="R"
       transform="matrix(1.9802114,0,0,2.4835358,-622.69505,1152.2964)"
       id="text31196"
       style="font-size:40px;line-height:125%;font-family:Milford;-inkscape-font-specification:'Milford, Normal';letter-spacing:0px;word-spacing:0px;white-space:pre;shape-inside:url(#rect31198);fill:#e0ddcb;fill-opacity:1;stroke-width:1px">
      <path
         d="m 396.0868,-487.32063 -10.76366,-0.0294 c 0.0963,-5.79177 0.5387,-9.7533 -0.0779,-12.81902 -0.46325,-1.2164 -1.21493,-1.26721 -2.53756,-1.26611 l -0.44961,14.11614 -10.57498,0.17337 c 0,0 0.94498,-11.0819 0.94819,-16.06311 0.003,-5.06421 -1.17338,-15.1638 -1.17338,-15.1638 6.30814,0.0424 14.72114,-1.28555 20.1188,0.69688 2.23908,0.82236 3.01904,2.13208 3.69885,6.41504 0.40802,2.57065 -0.68268,5.24726 -1.68029,6.11956 -1.13607,0.99336 -2.56577,1.22229 -4.19338,1.53479 1.65365,0.45573 3.01323,0.73218 4.1675,1.76033 2.71282,2.41639 2.04721,9.13495 2.51746,14.52533 z m -10.81574,-22.30764 c 0,-1.6276 -0.14287,-2.28224 -0.28517,-2.73314 -0.53252,-0.63371 -1.53167,-0.96203 -2.79973,-0.92045 l 0.13038,7.0628 c 0.78176,-0.14855 1.65789,-0.002 2.7216,-0.83725 0.33591,-0.96896 0.22526,-1.65236 0.23292,-2.57196 z"
         id="path34572"
         sodipodi:nodetypes="ccccccscssscscccccccc"
         style="fill:#e0ddcb;fill-opacity:1" />
    </g>
    <path
       style="display:inline;fill:#bb3510;fill-opacity:1;fill-rule:evenodd;stroke:none;stroke-width:1.165;stroke-linecap:butt;stroke-linejoin:miter;stroke-miterlimit:4;stroke-dasharray:none;stroke-opacity:1"
       d="m 8.7778163,-59.276077 c 12.9687957,15.269623 60.3658187,12.248578 103.6444537,3.667693 43.27864,-8.580884 82.43888,-22.721607 92.56556,-27.62597 2.88433,-1.396887 79.89994,-28.566746 70.9454,-50.704796 -5.85385,-14.47231 -47.94176,-10.60471 -47.94176,-10.60471 l -1.20166,-4.38524 -23.52638,11.11196 26.484,2.25314 -1.01302,-4.21521 c 0,0 30.27119,-0.099 31.86347,11.31329 0.82108,5.88488 -5.48228,12.50698 -14.61249,18.79485 -7.78907,5.36424 -16.36048,9.951467 -24.37135,14.457581 -14.75439,8.299343 -60.69981,26.274264 -104.88067,34.766651 -57.746456,11.099947 -86.33379,8.844858 -91.437795,-2.403898 -4.711506,-10.383723 22.614022,-28.345104 41.452732,-36.457206 18.83871,-8.112098 24.874896,-10.344418 21.546198,-12.635038 -25.523222,6.34449 -90.9929956,39.154555 -79.5166887,52.666903 z"
       id="path38174"
       sodipodi:nodetypes="sssscccccsssssscs" />
    <path
       style="fill:none;fill-rule:evenodd;stroke:#e0ddcb;stroke-width:1;stroke-linecap:butt;stroke-linejoin:miter;stroke-miterlimit:4;stroke-dasharray:none;stroke-opacity:1"
       d="M 98.841277,-52.605946 C 134.50004,-58.92626 159.05105,-66.021098 191.48456,-77.171139"
       id="path50399"
       sodipodi:nodetypes="cc" />
  </g>
</svg>
