<?xml version="1.0" encoding="UTF-8" standalone="no"?>
<!-- Created with Inkscape (http://www.inkscape.org/) -->

<svg
   width="210mm"
   height="297mm"
   viewBox="0 0 210 297"
   version="1.1"
   id="svg5"
   inkscape:version="1.4 (86a8ad7, 2024-10-11)"
   sodipodi:docname="dangerous_animals.svg"
   xmlns:inkscape="http://www.inkscape.org/namespaces/inkscape"
   xmlns:sodipodi="http://sodipodi.sourceforge.net/DTD/sodipodi-0.dtd"
   xmlns="http://www.w3.org/2000/svg"
   xmlns:svg="http://www.w3.org/2000/svg">
  <sodipodi:namedview
     id="namedview7"
     pagecolor="#ffffff"
     bordercolor="#666666"
     borderopacity="1.0"
     inkscape:pageshadow="2"
     inkscape:pageopacity="0.0"
     inkscape:pagecheckerboard="0"
     inkscape:document-units="mm"
     showgrid="false"
     showborder="false"
     inkscape:zoom="2"
     inkscape:cx="427.75"
     inkscape:cy="43"
     inkscape:window-width="1918"
     inkscape:window-height="2082"
     inkscape:window-x="1906"
     inkscape:window-y="0"
     inkscape:window-maximized="0"
     inkscape:current-layer="svg5"
     inkscape:showpageshadow="2"
     inkscape:deskcolor="#d1d1d1" />
  <defs
     id="defs2" />
  <g
     inkscape:label="Calque 1"
     inkscape:groupmode="layer"
     id="layer1"
     style="display:inline;opacity:1">
    <rect
       style="fill:#683b30;fill-opacity:1;stroke:none;stroke-width:10.5016;stroke-linecap:round"
       id="rect860"
       width="67.02121"
       height="50.343357"
       x="75.540855"
       y="-73.991821"
       ry="0"
       sodipodi:insensitive="true" />
    <text
       xml:space="preserve"
       style="font-style:normal;font-weight:normal;font-size:6.70624px;line-height:125%;font-family:sans-serif;letter-spacing:0px;word-spacing:0px;fill:#e0ddcb;fill-opacity:1;stroke:#e0ddcb;stroke-width:0.167656px;stroke-linecap:butt;stroke-linejoin:miter;stroke-opacity:1"
       x="87.591202"
       y="-69.47361"
       id="text6762"
       transform="scale(1.0447547,0.95716251)"
       sodipodi:insensitive="true"><tspan
         sodipodi:role="line"
         style="fill:#e0ddcb;fill-opacity:1;stroke:#e0ddcb;stroke-width:0.167656px;stroke-opacity:1"
         x="87.591202"
         y="-69.47361"
         id="tspan6764">WARNING</tspan></text>
    <text
       xml:space="preserve"
       style="font-style:normal;font-weight:normal;font-size:8.94275px;line-height:100%;font-family:sans-serif;text-align:center;letter-spacing:0px;word-spacing:0px;text-anchor:middle;fill:#e0ddcb;fill-opacity:1;stroke:#e0ddcb;stroke-width:0.530618;stroke-linecap:butt;stroke-linejoin:miter;stroke-miterlimit:4;stroke-dasharray:none;stroke-opacity:1"
       x="107.51543"
       y="-57.101215"
       id="text13277"
       transform="scale(1.0203292,0.98007585)"
       sodipodi:insensitive="true"><tspan
         sodipodi:role="line"
         id="tspan13275"
         style="font-style:normal;font-variant:normal;font-weight:normal;font-stretch:normal;font-family:Arial;-inkscape-font-specification:Arial;text-align:center;text-anchor:middle;fill:#e0ddcb;fill-opacity:1;stroke:#e0ddcb;stroke-width:0.530618;stroke-miterlimit:4;stroke-dasharray:none;stroke-opacity:1"
         x="107.51543"
         y="-57.101215">DANGEROUS</tspan><tspan
         sodipodi:role="line"
         style="font-style:normal;font-variant:normal;font-weight:normal;font-stretch:normal;font-family:Arial;-inkscape-font-specification:Arial;text-align:center;text-anchor:middle;fill:#e0ddcb;fill-opacity:1;stroke:#e0ddcb;stroke-width:0.530618;stroke-miterlimit:4;stroke-dasharray:none;stroke-opacity:1"
         x="107.51543"
         y="-48.0769"
         id="tspan13279">ANIMALS</tspan></text>
    <rect
       style="fill:#e0ddcb;fill-opacity:1;stroke:none;stroke-width:12.113;stroke-linecap:round;stroke-opacity:1"
       id="rect21806"
       width="56.023121"
       height="16.522949"
       x="81.736961"
       y="-44.250519"
       ry="2.9947844"
       sodipodi:insensitive="true" />
    <rect
       style="fill:#e0ddcb;fill-opacity:1;stroke:none;stroke-width:12.113;stroke-linecap:round;stroke-opacity:1"
       id="rect27303"
       width="57.365612"
       height="0.56797636"
       x="81.065712"
       y="-65.523819"
       ry="0.28398818"
       sodipodi:insensitive="true" />
    <text
       xml:space="preserve"
       style="font-style:normal;font-variant:normal;font-weight:normal;font-stretch:normal;font-size:6.05711px;line-height:100%;font-family:Arial;-inkscape-font-specification:'Arial, Normal';font-variant-ligatures:normal;font-variant-caps:normal;font-variant-numeric:normal;font-variant-east-asian:normal;letter-spacing:0px;word-spacing:0px;fill:#683b30;fill-opacity:1;stroke:#683b30;stroke-width:0.5;stroke-linecap:butt;stroke-linejoin:miter;stroke-miterlimit:4;stroke-dasharray:none;stroke-opacity:1"
       x="109.90051"
       y="-37.280434"
       id="text28376"
       transform="scale(1.0024173,0.99758852)"
       sodipodi:insensitive="true"><tspan
         sodipodi:role="line"
         id="tspan28374"
         style="font-style:normal;font-variant:normal;font-weight:normal;font-stretch:normal;font-size:6.05711px;font-family:Arial;-inkscape-font-specification:'Arial, Normal';font-variant-ligatures:normal;font-variant-caps:normal;font-variant-numeric:normal;font-variant-east-asian:normal;text-align:center;text-anchor:middle;fill:#683b30;fill-opacity:1;stroke:#683b30;stroke-width:0.5;stroke-miterlimit:4;stroke-dasharray:none;stroke-opacity:1"
         x="109.90051"
         y="-37.280434">USE CAUTION</tspan><tspan
         sodipodi:role="line"
         style="font-style:normal;font-variant:normal;font-weight:normal;font-stretch:normal;font-size:6.05711px;font-family:Arial;-inkscape-font-specification:'Arial, Normal';font-variant-ligatures:normal;font-variant-caps:normal;font-variant-numeric:normal;font-variant-east-asian:normal;text-align:center;text-anchor:middle;fill:#683b30;fill-opacity:1;stroke:#683b30;stroke-width:0.5;stroke-miterlimit:4;stroke-dasharray:none;stroke-opacity:1"
         x="109.90051"
         y="-31.223324"
         id="tspan28380">WHEN HANDLING</tspan></text>
    <path
       style="fill:#707070;fill-opacity:1;fill-rule:evenodd;stroke:none;stroke-width:0.264583px;stroke-linecap:butt;stroke-linejoin:miter;stroke-opacity:1"
       d="m 97.537031,-31.032161 12.547109,-4.956887 19.621,-5.834666 8.98436,-1.807196 -14.14778,4.853617 -16.41968,5.008517 z"
       id="path45445" />
    <path
       style="fill:#707070;fill-opacity:1;fill-rule:evenodd;stroke:none;stroke-width:0.264583px;stroke-linecap:butt;stroke-linejoin:miter;stroke-opacity:1"
       d="m 79.046103,-37.569719 c 6.977938,-6.697127 17.286234,-8.790267 26.178317,-12.742306 1.74018,-0.773411 16.50293,-4.600372 16.50293,-4.600372 0,0 -6.53556,3.475024 -7.84985,4.016198 -5.60221,1.297378 -11.012,3.307558 -16.856521,6.03306 -5.72035,2.667597 -12.612888,4.401245 -17.974876,7.29342 z"
       id="path59406"
       sodipodi:nodetypes="csccsc" />
    <path
       style="fill:#707070;fill-opacity:1;fill-rule:evenodd;stroke:none;stroke-width:0.264583px;stroke-linecap:butt;stroke-linejoin:miter;stroke-opacity:1"
       d="m 82.806727,-47.938816 c 6.964098,-4.400974 14.785475,-7.200792 22.527223,-10.150031 0.0478,-0.0182 7.188,-1.889987 7.19265,-1.862055 0.13329,0.799738 -6.84103,3.620204 -14.076501,6.423291 -7.235468,2.803087 -14.768592,6.647611 -15.643372,5.588795 z"
       id="path60995"
       sodipodi:nodetypes="cscsc" />
    <path
       style="fill:#707070;fill-opacity:1;fill-rule:evenodd;stroke:none;stroke-width:0.264583px;stroke-linecap:butt;stroke-linejoin:miter;stroke-opacity:1"
       d="m 113.16554,-45.437818 c 1.98272,-0.807773 4.43517,-1.539838 6.57304,-1.940687 0.14362,-0.02693 2.46341,-0.08567 2.46341,-0.08567 0,0 -1.05711,0.880287 -1.54133,1.143291 -2.6565,1.442889 -5.74477,2.195193 -8.48092,3.402314 -7.11189,3.137604 -14.608134,6.012862 -21.888279,8.853895 -1.370404,0.534791 -5.819744,1.770438 -11.636598,2.720822 10.675388,-6.926517 22.756997,-9.305428 34.510677,-14.093968 z"
       id="path61789"
       sodipodi:nodetypes="sscssscs" />
    <path
       style="fill:#707070;fill-opacity:1;fill-rule:evenodd;stroke:none;stroke-width:0.264583px;stroke-linecap:butt;stroke-linejoin:miter;stroke-opacity:1"
       d="m 131.7447,-58.986544 c -0.45351,0.09103 1.59487,-0.415896 1.64053,-0.158028 0.0412,0.232721 -6.26286,3.169485 -6.62323,3.191537 0.96351,-2.162258 3.08926,-2.570242 4.9827,-3.033509 z"
       id="path62434"
       sodipodi:nodetypes="cscc" />
    <path
       style="fill:#707070;fill-opacity:1;fill-rule:evenodd;stroke:none;stroke-width:0.264583px;stroke-linecap:butt;stroke-linejoin:miter;stroke-opacity:1"
       d="m 127.24678,-65.406175 c 1.71718,-0.368379 4.35271,-0.936676 4.39165,-0.764331 0.0465,0.205928 -1.47072,1.225865 -1.72873,1.326743 -1.99901,0.781571 -5.24361,1.896658 -6.82582,1.262848 0.84758,-0.474694 3.22811,-1.624724 4.1629,-1.82526 z"
       id="path65122"
       sodipodi:nodetypes="ssscs" />
    <path
       id="path70831"
       style="display:none;fill:#461b10;stroke-width:1.88976;stroke-linecap:round"
       inkscape:transform-center-x="-0.28941759"
       inkscape:transform-center-y="-0.59191788"
       transform="scale(0.26458333)"
       d="m 527.95233,-183.78724 c -2.87773,1.76251 -3.15752,-6.02811 -7.23187,-6.83502 -4.07435,-0.80691 -10.65344,7.48964 -13.97775,5.35982 -3.32431,-2.12982 1.59626,-6.89172 -0.56666,-8.69981 -2.16292,-1.80809 -6.45738,4.25796 -8.144,0.9258 -1.68662,-3.33216 10.27784,-5.77076 9.65452,-10.42895 -0.62332,-4.65819 -13.06993,-2.31511 -11.86575,-7.4045 1.20418,-5.08939 13.89586,1.61139 17.31743,-1.61918 3.42157,-3.23057 -2.10061,-10.24548 1.62695,-10.71856 3.72756,-0.47308 1.39713,9.3023 4.59108,10.76534 3.19395,1.46304 7.00906,-5.22123 8.9322,-2.84743 1.92314,2.3738 -5.70897,4.19925 -4.431,7.78227 1.27797,3.58302 12.28146,0.27244 12.94084,4.98931 0.65938,4.71687 -10.43557,4.89486 -11.74559,8.85089 -1.31002,3.95603 5.77733,8.11751 2.8996,9.88002 z"
       sodipodi:nodetypes="zzzzzzzzzzzzzzz" />
    <path
       id="path66990"
       style="display:none;opacity:1;fill:#461b10;fill-opacity:1;stroke-width:0.086987;stroke-linecap:round"
       inkscape:transform-center-x="-0.18762344"
       inkscape:transform-center-y="-0.22690493"
       d="m 134.15423,-65.731045 c -0.32199,0.327698 -0.72819,-0.89472 -1.17327,-0.779367 -0.44508,0.115354 -0.32682,1.478276 -0.80171,1.320074 -0.47489,-0.158201 0.3565,-1.539778 -0.0966,-1.838789 -0.45311,-0.299011 -1.0714,1.289681 -1.36998,0.834948 -0.29858,-0.454734 0.98732,-0.643519 0.94641,-1.202675 -0.0409,-0.559155 -1.23062,-0.562177 -1.17527,-1.058887 0.0554,-0.496709 0.82597,-0.06732 1.00364,-0.493118 0.17767,-0.4258 -0.7935,-1.235489 -0.35297,-1.515228 0.44054,-0.279738 0.53709,1.538895 1.11011,1.448017 0.57303,-0.09088 0.27447,-1.95039 0.80219,-1.889349 0.52773,0.06104 -1.5e-4,1.221096 0.35773,1.552189 0.35794,0.331094 1.20822,-0.390718 1.36262,0.05061 0.15441,0.441329 -0.76516,0.517291 -0.75049,0.916477 0.0147,0.399186 0.77257,0.336697 0.72558,0.746126 -0.047,0.409429 -0.89569,0.163317 -1.03761,0.593466 -0.14191,0.430148 0.77162,0.987806 0.44962,1.315506 z"
       sodipodi:nodetypes="zzzzzzzzzzzzzzzzz" />
  </g>
</svg>
