<?xml version="1.0" encoding="UTF-8" standalone="no"?>
<!-- Created with Inkscape (http://www.inkscape.org/) -->

<svg
   width="210mm"
   height="297mm"
   viewBox="0 0 210 297"
   version="1.1"
   id="svg5"
   inkscape:version="1.4 (86a8ad7, 2024-10-11)"
   xml:space="preserve"
   sodipodi:docname="blu_logo_lumber.svg"
   xmlns:inkscape="http://www.inkscape.org/namespaces/inkscape"
   xmlns:sodipodi="http://sodipodi.sourceforge.net/DTD/sodipodi-0.dtd"
   xmlns:xlink="http://www.w3.org/1999/xlink"
   xmlns="http://www.w3.org/2000/svg"
   xmlns:svg="http://www.w3.org/2000/svg"><sodipodi:namedview
     id="namedview7"
     pagecolor="#ffffff"
     bordercolor="#666666"
     borderopacity="1.0"
     inkscape:pageshadow="2"
     inkscape:pageopacity="0.0"
     inkscape:pagecheckerboard="0"
     inkscape:document-units="mm"
     showgrid="false"
     showborder="false"
     inkscape:showpageshadow="2"
     inkscape:deskcolor="#d1d1d1"
     inkscape:zoom="2.3798687"
     inkscape:cx="272.28393"
     inkscape:cy="643.52291"
     inkscape:window-width="3840"
     inkscape:window-height="2091"
     inkscape:window-x="-8"
     inkscape:window-y="-8"
     inkscape:window-maximized="1"
     inkscape:current-layer="layer1" /><defs
     id="defs2"><rect
       x="186.59141"
       y="417.1566"
       width="685.15892"
       height="191.04822"
       id="rect4" /><filter
       style="color-interpolation-filters:sRGB;"
       inkscape:label="Drop Shadow"
       id="filter14"
       x="-0.026785139"
       y="-0.0098427661"
       width="1.0292986"
       height="1.0524075"><feFlood
         result="flood"
         in="SourceGraphic"
         flood-opacity="0.498039"
         flood-color="rgb(144,188,192)"
         id="feFlood13" /><feGaussianBlur
         result="blur"
         in="SourceGraphic"
         stdDeviation="0.400000"
         id="feGaussianBlur13" /><feOffset
         result="offset"
         in="blur"
         dx="-9.270516"
         dy="3.191489"
         id="feOffset13" /><feComposite
         result="comp1"
         operator="in"
         in="flood"
         in2="offset"
         id="feComposite13" /><feComposite
         result="comp2"
         operator="over"
         in="SourceGraphic"
         in2="comp1"
         id="feComposite14" /></filter></defs><g
     inkscape:label="Calque 1"
     inkscape:groupmode="layer"
     id="layer1"
     style="display:inline;fill:none;stroke:none"
     inkscape:export-filename="layer1.png"
     inkscape:export-xdpi="1500"
     inkscape:export-ydpi="1500"><path
       style="display:inline;fill:#335f6d;fill-opacity:1;fill-rule:evenodd;stroke:none;stroke-width:0.264583px;stroke-linecap:butt;stroke-linejoin:miter;stroke-opacity:1"
       d="m 117.65158,179.38183 v 2.93226 l 1.79982,-1.03913 v -2.04599 z"
       id="path6" /><path
       sodipodi:type="star"
       style="display:none;opacity:0.383037;fill:#f8fbff;fill-opacity:1;stroke:none;stroke-width:0.264583;stroke-opacity:1"
       id="path19"
       inkscape:flatsided="false"
       sodipodi:sides="100"
       sodipodi:cx="120.35654"
       sodipodi:cy="122.5577"
       sodipodi:r1="27.491762"
       sodipodi:r2="5.4983525"
       sodipodi:arg1="0.17742067"
       sodipodi:arg2="0.2088366"
       inkscape:rounded="0"
       inkscape:randomized="0"
       d="m 147.41674,127.40976 -21.68131,-3.71213 21.32325,5.40168 -21.40545,-5.06619 20.94201,6.72992 -21.0451,-6.40025 20.4781,8.0316 -20.60169,-7.70905 19.93339,9.30158 -20.07699,-8.98743 19.31,10.53485 -19.47304,-10.23033 18.6104,11.72654 -18.79224,-11.43287 17.83736,12.87197 -18.03729,-12.59029 16.99394,13.96658 -17.21115,-13.69801 16.08343,15.00608 -16.31708,-14.75168 15.10945,15.98636 -15.35861,-15.74714 14.07584,16.90355 -14.33954,-16.68044 12.98669,17.75402 -13.26387,-17.5479 11.84628,18.53442 -12.13585,-18.34612 10.65911,19.24168 -10.95994,-19.07194 9.42989,19.87301 -9.74078,-19.72248 8.16344,20.4259 -8.48317,-20.2952 6.86478,20.89818 -7.19209,-20.78781 5.53903,21.28799 -5.87262,-21.19839 4.19141,21.59378 -4.52997,-21.5253 2.82726,21.81435 -3.16945,-21.76726 1.45194,21.94882 -1.79641,-21.92332 0.0709,21.99669 -0.4163,-21.99286 -1.31042,21.95773 0.96547,-21.9756 -2.68657,21.83212 2.34342,-21.87162 -4.05212,21.62035 3.71213,-21.68131 -5.40168,21.32325 5.06618,-21.40544 -6.72991,20.942 6.40024,-21.0451 -8.03159,20.47811 7.70905,-20.6017 -9.30158,19.93339 8.98743,-20.07699 -10.53486,19.31 10.23034,-19.47304 -11.72655,18.61041 11.43288,-18.79225 -12.87197,17.83737 12.59029,-18.03729 -13.96659,16.99393 13.69802,-17.21115 -15.00608,16.08343 14.75168,-16.31708 -15.98636,15.10946 15.74713,-15.35862 -16.90354,14.07585 16.68043,-14.33954 -17.754014,12.98669 17.547904,-13.26387 -18.534423,11.84628 18.346123,-12.13586 -19.241685,10.65912 19.071935,-10.95995 -19.873004,9.42989 19.722484,-9.74078 -20.4259,8.16344 20.2952,-8.48317 -20.898185,6.86478 20.787815,-7.19209 -21.287991,5.53903 21.198381,-5.87262 -21.593774,4.19142 21.525304,-4.52998 -21.814353,2.82726 21.767263,-3.16945 -21.948827,1.45195 21.923327,-1.79642 -21.996689,0.0709 21.992859,-0.41629 -21.957731,-1.31042 21.975601,0.96546 -21.832121,-2.68657 21.871621,2.34342 -21.620355,-4.05212 21.681315,3.71213 -21.323255,-5.40168 21.405445,5.06619 -20.942003,-6.72992 21.045093,6.40025 -20.4781,-8.0316 20.60169,7.70905 -19.933381,-9.30158 20.076981,8.98743 -19.309996,-10.53485 19.473046,10.23034 -18.610411,-11.72655 18.792251,11.43287 -17.83737,-12.87197 18.03729,12.59029 -16.993932,-13.96658 17.211152,13.69801 -16.08343,-15.00608 16.31708,14.75168 -15.10946,-15.98635 15.35862,15.74713 -14.07585,-16.90355 14.33954,16.68044 -12.98669,-17.75402 13.26387,17.54791 -11.84628,-18.534429 12.13586,18.346119 -10.65912,-19.241681 10.95994,19.071941 -9.42988,-19.87301 9.74078,19.72249 -8.16345,-20.425905 8.48318,20.295195 -6.86478,-20.898181 7.19208,20.787811 -5.53902,-21.287987 5.87262,21.198387 -4.19142,-21.59378 4.52998,21.5253 -2.82726,-21.814348 3.16945,21.767268 -1.45195,-21.948832 1.79642,21.923322 -0.0709,-21.996685 0.4163,21.992865 1.31042,-21.957737 -0.96547,21.975607 2.68658,-21.832127 -2.34343,21.871617 4.05212,-21.620351 -3.71212,21.681311 5.40167,-21.32325 -5.06618,21.40544 6.72992,-20.941999 -6.40025,21.045099 8.0316,-20.478105 -7.70905,20.601695 9.30158,-19.933387 -8.98743,20.076987 10.53485,-19.310002 -10.23034,19.473042 11.72655,-18.610407 -11.43287,18.792247 12.87196,-17.83737 -12.59029,18.0373 13.96659,-16.99394 -13.69802,17.21115 15.00609,-16.08343 -14.75169,16.31708 15.98636,-15.10945 -15.74713,15.35861 16.90354,-14.07584 -16.68043,14.33953 17.75402,-12.98669 -17.54791,13.26388 18.53443,-11.84628 -18.34613,12.13585 19.24169,-10.65912 -19.07194,10.95995 19.87301,-9.42989 -19.72249,9.74078 20.4259,-8.16344 -20.29519,8.48317 20.89818,-6.86478 -20.78781,7.19209 21.28799,-5.53903 -21.19839,5.87262 21.59378,-4.19141 -21.5253,4.52997 21.81435,-2.82726 -21.76727,3.16945 21.94883,-1.45195 -21.92332,1.79642 21.99668,-0.0709 -21.99286,0.4163 21.95774,1.31042 -21.97561,-0.96547 21.83212,2.68657 -21.87161,-2.34342 z"
       transform="matrix(2.3032462,0,0,2.3032462,-199.40667,-107.77606)"
       sodipodi:insensitive="true" /><path
       style="display:inline;fill-opacity:1;fill-rule:evenodd"
       d="m 40.107417,102.89698 c 5.999123,-6.107491 13.832933,-2.57646 62.841193,-1.28248 49.00826,1.29398 62.6732,-1.24192 67.33985,7.48133 4.66666,8.72325 0.91568,18.8996 -2.03931,47.58547 -2.955,28.68587 -4.50576,32.57374 -9.46804,38.12764 -4.96229,5.5539 -12.79305,2.69538 -51.16313,2.97245 -38.370079,0.27707 -52.29616,2.66416 -57.090306,-3.7395 -4.794146,-6.40366 -5.160381,-14.95191 -8.503298,-44.51071 -3.342917,-29.5588 -7.916082,-40.52672 -1.916959,-46.6342 z"
       id="path1"
       sodipodi:nodetypes="zzzzzzzzz"
       sodipodi:insensitive="true" /><g
       id="g3"
       style="display:inline;fill:#2a6ad8;fill-opacity:1"
       sodipodi:insensitive="true"><use
         x="0"
         y="0"
         xlink:href="#path1"
         id="use1"
         style="display:inline;fill:#4b8090;fill-opacity:1;stroke:none;stroke-opacity:1"
         sodipodi:insensitive="true" /></g><g
       id="g4"
       style="stroke:#f4e1e1;stroke-opacity:1"
       sodipodi:insensitive="true"><use
         x="0"
         y="0"
         xlink:href="#path1"
         id="use3"
         transform="matrix(0.93026135,0,0,0.89739772,7.3049888,14.455587)"
         style="display:inline;stroke:#f4e1e1;stroke-opacity:1"
         sodipodi:insensitive="true" /></g><path
       sodipodi:type="star"
       style="display:none;opacity:0.600634;fill:#c0dca0;fill-opacity:1;stroke:none;stroke-width:0.264583;stroke-opacity:1"
       id="path2"
       inkscape:flatsided="false"
       sodipodi:sides="100"
       sodipodi:cx="120.35654"
       sodipodi:cy="122.5577"
       sodipodi:r1="27.491762"
       sodipodi:r2="5.4983525"
       sodipodi:arg1="0.17742067"
       sodipodi:arg2="0.2088366"
       inkscape:rounded="0"
       inkscape:randomized="0"
       d="m 147.41674,127.40976 -21.68131,-3.71213 21.32325,5.40168 -21.40545,-5.06619 20.94201,6.72992 -21.0451,-6.40025 20.4781,8.0316 -20.60169,-7.70905 19.93339,9.30158 -20.07699,-8.98743 19.31,10.53485 -19.47304,-10.23033 18.6104,11.72654 -18.79224,-11.43287 17.83736,12.87197 -18.03729,-12.59029 16.99394,13.96658 -17.21115,-13.69801 16.08343,15.00608 -16.31708,-14.75168 15.10945,15.98636 -15.35861,-15.74714 14.07584,16.90355 -14.33954,-16.68044 12.98669,17.75402 -13.26387,-17.5479 11.84628,18.53442 -12.13585,-18.34612 10.65911,19.24168 -10.95994,-19.07194 9.42989,19.87301 -9.74078,-19.72248 8.16344,20.4259 -8.48317,-20.2952 6.86478,20.89818 -7.19209,-20.78781 5.53903,21.28799 -5.87262,-21.19839 4.19141,21.59378 -4.52997,-21.5253 2.82726,21.81435 -3.16945,-21.76726 1.45194,21.94882 -1.79641,-21.92332 0.0709,21.99669 -0.4163,-21.99286 -1.31042,21.95773 0.96547,-21.9756 -2.68657,21.83212 2.34342,-21.87162 -4.05212,21.62035 3.71213,-21.68131 -5.40168,21.32325 5.06618,-21.40544 -6.72991,20.942 6.40024,-21.0451 -8.03159,20.47811 7.70905,-20.6017 -9.30158,19.93339 8.98743,-20.07699 -10.53486,19.31 10.23034,-19.47304 -11.72655,18.61041 11.43288,-18.79225 -12.87197,17.83737 12.59029,-18.03729 -13.96659,16.99393 13.69802,-17.21115 -15.00608,16.08343 14.75168,-16.31708 -15.98636,15.10946 15.74713,-15.35862 -16.90354,14.07585 16.68043,-14.33954 -17.754014,12.98669 17.547904,-13.26387 -18.534423,11.84628 18.346123,-12.13586 -19.241685,10.65912 19.071935,-10.95995 -19.873004,9.42989 19.722484,-9.74078 -20.4259,8.16344 20.2952,-8.48317 -20.898185,6.86478 20.787815,-7.19209 -21.287991,5.53903 21.198381,-5.87262 -21.593774,4.19142 21.525304,-4.52998 -21.814353,2.82726 21.767263,-3.16945 -21.948827,1.45195 21.923327,-1.79642 -21.996689,0.0709 21.992859,-0.41629 -21.957731,-1.31042 21.975601,0.96546 -21.832121,-2.68657 21.871621,2.34342 -21.620355,-4.05212 21.681315,3.71213 -21.323255,-5.40168 21.405445,5.06619 -20.942003,-6.72992 21.045093,6.40025 -20.4781,-8.0316 20.60169,7.70905 -19.933381,-9.30158 20.076981,8.98743 -19.309996,-10.53485 19.473046,10.23034 -18.610411,-11.72655 18.792251,11.43287 -17.83737,-12.87197 18.03729,12.59029 -16.993932,-13.96658 17.211152,13.69801 -16.08343,-15.00608 16.31708,14.75168 -15.10946,-15.98635 15.35862,15.74713 -14.07585,-16.90355 14.33954,16.68044 -12.98669,-17.75402 13.26387,17.54791 -11.84628,-18.534429 12.13586,18.346119 -10.65912,-19.241681 10.95994,19.071941 -9.42988,-19.87301 9.74078,19.72249 -8.16345,-20.425905 8.48318,20.295195 -6.86478,-20.898181 7.19208,20.787811 -5.53902,-21.287987 5.87262,21.198387 -4.19142,-21.59378 4.52998,21.5253 -2.82726,-21.814348 3.16945,21.767268 -1.45195,-21.948832 1.79642,21.923322 -0.0709,-21.996685 0.4163,21.992865 1.31042,-21.957737 -0.96547,21.975607 2.68658,-21.832127 -2.34343,21.871617 4.05212,-21.620351 -3.71212,21.681311 5.40167,-21.32325 -5.06618,21.40544 6.72992,-20.941999 -6.40025,21.045099 8.0316,-20.478105 -7.70905,20.601695 9.30158,-19.933387 -8.98743,20.076987 10.53485,-19.310002 -10.23034,19.473042 11.72655,-18.610407 -11.43287,18.792247 12.87196,-17.83737 -12.59029,18.0373 13.96659,-16.99394 -13.69802,17.21115 15.00609,-16.08343 -14.75169,16.31708 15.98636,-15.10945 -15.74713,15.35861 16.90354,-14.07584 -16.68043,14.33953 17.75402,-12.98669 -17.54791,13.26388 18.53443,-11.84628 -18.34613,12.13585 19.24169,-10.65912 -19.07194,10.95995 19.87301,-9.42989 -19.72249,9.74078 20.4259,-8.16344 -20.29519,8.48317 20.89818,-6.86478 -20.78781,7.19209 21.28799,-5.53903 -21.19839,5.87262 21.59378,-4.19141 -21.5253,4.52997 21.81435,-2.82726 -21.76727,3.16945 21.94883,-1.45195 -21.92332,1.79642 21.99668,-0.0709 -21.99286,0.4163 21.95774,1.31042 -21.97561,-0.96547 21.83212,2.68657 -21.87161,-2.34342 z"
       transform="matrix(2.3032462,0,0,2.3032462,-199.40667,-107.77606)"
       sodipodi:insensitive="true"
       inkscape:label="star" /><path
       id="path15"
       style="display:inline;opacity:0.600634;fill:#c0dca0;stroke-width:0.264583"
       inkscape:label="star"
       transform="matrix(2.3032462,0,0,2.3032462,-199.40667,-107.77606)"
       d="m 114.86312,122.79138 -6.21873,-0.11011 6.2149,-0.23528 -6.32026,-0.49424 6.33813,0.14928 -6.39619,-0.92027 6.43569,0.57712 -6.48308,-1.36427 6.54404,1.02428 -6.59555,-1.80081 6.67774,1.46532 -6.76894,-2.28431 6.87203,1.95464 -7.00473,-2.86069 7.12832,2.53814 -7.20237,-3.47364 7.34597,3.15949 -7.4358,-3.99439 7.59885,3.68988 -7.72249,-4.83201 7.90433,4.53833 -8.07579,-6.06276 8.27571,5.78108 -8.49521,-7.0891 8.71243,6.82053 -8.8817,-8.43579 9.11535,8.18139 -9.39245,-10.08162 9.64161,9.8424 -9.92888,-12.07396 10.19257,11.85085 -10.71695,-14.78459 10.99413,14.57848 -11.02713,-17.3569 11.31671,17.16859 -10.65912,-19.241681 10.95994,19.071941 -9.42988,-19.87301 9.74078,19.72249 -8.16345,-20.425905 8.48318,20.295195 -6.86478,-20.898181 7.19208,20.787811 -5.53902,-21.287987 5.87262,21.198387 -4.19142,-21.59378 4.52998,21.5253 -2.82726,-21.814348 3.16945,21.767268 -1.45195,-21.948832 1.79642,21.923322 -0.0709,-21.996685 0.4163,21.992865 1.31042,-21.957737 -0.96547,21.975607 2.68658,-21.832127 -2.34343,21.871617 4.05212,-21.620351 -3.71212,21.681311 5.40167,-21.32325 -5.06618,21.40544 6.72992,-20.941999 -6.40025,21.045099 8.0316,-20.478105 -7.70905,20.601695 9.30158,-19.933387 -8.98743,20.076987 10.53485,-19.310002 -10.23034,19.473042 11.72655,-18.610407 -11.43287,18.792247 12.87196,-17.83737 -12.59029,18.0373 13.96659,-16.99394 -13.69802,17.21115 15.00609,-16.08343 -14.75169,16.31708 15.98636,-15.10945 -15.74713,15.35861 16.90354,-14.07584 -16.68043,14.33953 17.75402,-12.98669 -17.54791,13.26388 18.53443,-11.84628 -18.34613,12.13585 19.24169,-10.65912 -19.07194,10.95995 19.87301,-9.42989 -19.72249,9.74078 20.4259,-8.16344 -20.29519,8.48317 20.89818,-6.86478 -20.78781,7.19209 0.0896,0.33359 0.0685,0.33856 0.0471,0.34219 0.0255,0.34447 0.004,0.3454 -0.0179,0.34495 c -4.42897,0.0106 -6.45995,-0.25769 -10.97292,-0.22323 z"
       sodipodi:nodetypes="cccccccccccccccccccccccccccccccccccccccccccccccccccccccccccccccccccccccccccccccccccccccccccccccccccc"
       sodipodi:insensitive="true" /><path
       id="path16"
       style="display:inline;fill:#335f6d;fill-opacity:1;fill-rule:evenodd;stroke:none;stroke-width:0.264583px;stroke-linecap:butt;stroke-linejoin:miter;stroke-opacity:1"
       d="m 92.917326,150.49211 c -3.61382,0.005 -8.334006,0.68828 -10.703223,1.8743 -2.707676,1.35545 -2.163922,2.75118 -4.168738,4.11344 -2.004816,1.36226 -5.319345,0.48529 -8.7745,3.50196 -3.455155,3.01667 -1.879366,4.97227 -3.747445,7.18046 -1.868079,2.20819 -3.821082,0.71301 -6.489297,5.54915 -2.668215,4.83614 -0.536238,4.37749 0.333829,9.00514 5.428267,0.0139 15.829043,0.1773 20.169312,0.35295 -0.190135,-1.46418 -0.278385,-1.21946 -0.107487,-2.52801 1.364113,-1.14535 1.336482,1.13691 6.365991,-2.43818 5.029509,-3.57509 15.116162,-13.00753 17.998932,-15.41345 0.37906,-2.87282 1.3079,-6.82734 0.0987,-8.54573 -1.2092,-1.71839 -5.817001,-2.39313 -9.505363,-2.61224 -0.461045,-0.0274 -0.954451,-0.0406 -1.470711,-0.0398 z m -3.808036,3.10368 c 1.083419,0.0118 2.127792,0.19374 3.359484,0.21084 2.815299,0.0391 6.611184,-0.27456 8.431006,1.572 1.81983,1.84656 1.82007,6.68698 1.17926,6.87865 -0.64081,0.19167 -1.83539,-2.59358 -3.360518,-3.79305 -0.762561,-0.59973 -2.567912,-0.37982 -3.247864,-0.76119 -0.964875,-0.54118 -1.335476,-2.07151 -2.550232,-2.40296 -2.429512,-0.66289 -6.217609,-0.0838 -8.667171,-0.19637 2.004938,-1.25723 3.463066,-1.52309 4.856035,-1.50792 z"
       sodipodi:nodetypes="ssszsscccscsscssssssscss"
       sodipodi:insensitive="true" /><g
       id="g6"
       style="display:inline;fill:none;stroke:none"><use
         x="0"
         y="0"
         xlink:href="#path6"
         id="use6"
         transform="translate(-2.2790999,0.0833817)" /><use
         x="0"
         y="0"
         xlink:href="#path6"
         id="use7" /><use
         x="0"
         y="0"
         xlink:href="#path6"
         id="use8"
         transform="translate(-6.9172683,0.0833817)" /><use
         x="0"
         y="0"
         xlink:href="#path6"
         id="use9"
         transform="translate(-4.6381684)" /><use
         x="0"
         y="0"
         xlink:href="#path6"
         id="use10"
         transform="translate(-11.319598,-0.2703769)" /><use
         x="0"
         y="0"
         xlink:href="#path6"
         id="use11"
         transform="translate(-9.0404977,-0.3537586)" /><use
         x="0"
         y="0"
         xlink:href="#path6"
         id="use12"
         transform="translate(-15.957766,-0.2703769)" /><use
         x="0"
         y="0"
         xlink:href="#path6"
         id="use13"
         transform="translate(-13.678666,-0.3537586)" /><use
         x="0"
         y="0"
         xlink:href="#path6"
         id="use14"
         transform="translate(-20.371608,-0.45144634)" /><use
         x="0"
         y="0"
         xlink:href="#path6"
         id="use15"
         transform="translate(-18.092508,-0.53482804)" /><use
         x="0"
         y="0"
         xlink:href="#path6"
         id="use16"
         transform="translate(-25.009776,-0.45144634)" /><use
         x="0"
         y="0"
         xlink:href="#path6"
         id="use17"
         transform="translate(-22.730676,-0.53482804)" /><use
         x="0"
         y="0"
         xlink:href="#path6"
         id="use18"
         transform="translate(-29.412106,-0.80520494)" /><use
         x="0"
         y="0"
         xlink:href="#path6"
         id="use19"
         transform="translate(-27.133006,-0.88858664)" /><use
         x="0"
         y="0"
         xlink:href="#path6"
         id="use20"
         transform="translate(-34.050274,-0.80520494)" /><use
         x="0"
         y="0"
         xlink:href="#path6"
         id="use21"
         transform="translate(-31.771174,-0.88858664)" /><use
         x="0"
         y="0"
         xlink:href="#path6"
         id="use22"
         transform="translate(15.822946,-0.32480763)" /><use
         x="0"
         y="0"
         xlink:href="#path6"
         id="use23"
         transform="translate(18.102046,-0.40818933)" /><use
         x="0"
         y="0"
         xlink:href="#path6"
         id="use24"
         transform="translate(11.184778,-0.32480763)" /><use
         x="0"
         y="0"
         xlink:href="#path6"
         id="use25"
         transform="translate(13.463878,-0.40818933)" /><use
         x="0"
         y="0"
         xlink:href="#path6"
         id="use26"
         transform="translate(6.7268593,-0.12268821)" /><use
         x="0"
         y="0"
         xlink:href="#path6"
         id="use27"
         transform="translate(9.0059593,-0.20606991)" /><use
         x="0"
         y="0"
         xlink:href="#path6"
         id="use28"
         transform="translate(2.0886913,-0.12268821)" /><use
         x="0"
         y="0"
         xlink:href="#path6"
         id="use29"
         transform="translate(4.3677913,-0.20606991)" /><use
         x="0"
         y="0"
         xlink:href="#path6"
         id="use30"
         transform="translate(20.169009,-0.87428061)" /><use
         x="0"
         y="0"
         xlink:href="#path6"
         id="use31"
         transform="rotate(-6.1664726,117.88555,-27.145539)" /><use
         x="0"
         y="0"
         xlink:href="#path6"
         id="use32"
         transform="rotate(-14.950163,122.11886,86.684796)" /><use
         x="0"
         y="0"
         xlink:href="#path6"
         id="use33"
         transform="rotate(-25.842583,124.1775,121.59795)" /><use
         x="0"
         y="0"
         xlink:href="#path6"
         id="use34"
         transform="rotate(-34.658576,125.02658,133.23572)" /><use
         x="0"
         y="0"
         xlink:href="#path6"
         id="use35"
         transform="rotate(-42.745247,125.34573,139.53888)" /><use
         x="0"
         y="0"
         xlink:href="#path6"
         id="use36"
         transform="rotate(-48.029892,124.35027,141.64912)" /><use
         x="0"
         y="0"
         xlink:href="#path6"
         id="use37"
         transform="rotate(-58.118448,124.69446,146.51664)" /><use
         x="0"
         y="0"
         xlink:href="#path6"
         id="use38"
         transform="rotate(-70.60776,125.00787,151.17265)" /><use
         x="0"
         y="0"
         xlink:href="#path6"
         id="use39"
         transform="rotate(-84.537299,125.76784,154.95802)" /><use
         x="0"
         y="0"
         xlink:href="#path6"
         id="use40"
         transform="rotate(-104.09682,127.18957,159.06716)" /><use
         x="0"
         y="0"
         xlink:href="#path6"
         id="use41"
         transform="rotate(-112.33086,126.8,160.31683)" /><use
         x="0"
         y="0"
         xlink:href="#path6"
         id="use42"
         transform="rotate(-123.60892,126.89131,161.89343)" /><use
         x="0"
         y="0"
         xlink:href="#path6"
         id="use43"
         transform="rotate(-138.79358,127.29015,163.83266)" /><use
         x="0"
         y="0"
         xlink:href="#path6"
         id="use44"
         transform="rotate(-150.22586,127.18994,165.19685)" /><use
         x="0"
         y="0"
         xlink:href="#path6"
         id="use45"
         transform="rotate(-163.70361,127.27907,166.57036)" /><use
         x="0"
         y="0"
         xlink:href="#path6"
         id="use46"
         transform="rotate(-170.63495,126.70468,167.2685)" /><use
         x="0"
         y="0"
         xlink:href="#path6"
         id="use47"
         transform="rotate(-176.87295,126.16718,167.74568)" /><use
         x="0"
         y="0"
         xlink:href="#path6"
         id="use48"
         transform="rotate(179.99383,125.3481,168.12068)" /><use
         x="0"
         y="0"
         xlink:href="#path6"
         id="use49"
         transform="rotate(179.99383,124.22785,168.39577)" /><use
         x="0"
         y="0"
         xlink:href="#path6"
         id="use50"
         transform="rotate(179.99383,123.08795,168.6394)" /><use
         x="0"
         y="0"
         xlink:href="#path6"
         id="use51"
         transform="rotate(179.99383,121.9677,168.91449)" /><use
         x="0"
         y="0"
         xlink:href="#path6"
         id="use52"
         transform="rotate(176.17123,121.19776,168.90196)" /><use
         x="0"
         y="0"
         xlink:href="#path6"
         id="use53"
         transform="rotate(176.17123,120.08669,169.21444)" /><use
         x="0"
         y="0"
         xlink:href="#path6"
         id="use54"
         transform="rotate(176.17123,118.94844,169.30155)" /><use
         x="0"
         y="0"
         xlink:href="#path6"
         id="use55"
         transform="rotate(176.17123,117.83736,169.61402)" /><use
         x="0"
         y="0"
         xlink:href="#path6"
         id="use56"
         transform="rotate(172.26169,117.0391,169.6239)"
         inkscape:transform-center-x="-2.836607"
         inkscape:transform-center-y="-1.2649645" /><use
         x="0"
         y="0"
         xlink:href="#path6"
         id="use57"
         transform="rotate(172.26169,115.93744,169.9747)"
         inkscape:transform-center-x="-0.6905542"
         inkscape:transform-center-y="-0.41822191" /><use
         x="0"
         y="0"
         xlink:href="#path6"
         id="use58"
         transform="rotate(172.26169,114.80087,170.1008)"
         inkscape:transform-center-x="1.5552563"
         inkscape:transform-center-y="-0.014132506" /><use
         x="0"
         y="0"
         xlink:href="#path6"
         id="use59"
         transform="rotate(172.26169,113.69919,170.45159)"
         inkscape:transform-center-x="3.7013503"
         inkscape:transform-center-y="0.83259283" /><use
         x="0"
         y="0"
         xlink:href="#path6"
         id="use60"
         transform="rotate(172.26169,112.59832,170.67328)"
         inkscape:transform-center-x="3.7013503"
         inkscape:transform-center-y="0.83259283" /></g><path
       style="display:inline;fill:#bcc6d8;fill-opacity:1;fill-rule:evenodd;stroke:#335f6d;stroke-width:0.5;stroke-linecap:butt;stroke-linejoin:miter;stroke-dasharray:none;stroke-opacity:1"
       d="m 81.914769,167.99603 c 0,0 31.995181,-9.59565 48.504231,-11.4382 4.27526,-0.47716 8.81214,-1.56323 12.90487,0.11989 3.49627,1.43783 6.7686,5.07636 7.10214,8.842 0.4123,4.65486 -2.70138,9.92027 -6.72141,12.30294 -3.54851,2.1032 -8.23829,2.16536 -12.46016,2.55492 -16.46773,1.51949 -49.604817,-0.90405 -49.604817,-0.90405 z"
       id="path17"
       sodipodi:nodetypes="casasacc"
       sodipodi:insensitive="true" /><path
       style="display:inline;fill:#cbdbab;fill-opacity:1;fill-rule:evenodd;stroke:none;stroke-width:0.264583px;stroke-linecap:butt;stroke-linejoin:miter;stroke-opacity:1"
       d="m 78.990266,181.27182 c 0,0 0.63926,-4.97511 0.63926,-8.14362 0,-3.1685 -0.389115,-9.86683 -0.389115,-9.86683 0,0 0.138969,0.0556 1.389695,-0.36132 1.250725,-0.41691 2.696008,-1.88998 2.696008,-1.88998 0.07884,4.06292 -3.014063,3.4062 -2.890567,4.75275 0.417709,1.72815 2.27293,-0.19569 3.099021,-0.54197 -0.127433,3.14968 -3.261201,3.33869 -3.154606,4.65547 0.106595,1.31678 2.275166,1.04234 3.335268,0.33353 -0.187802,3.14069 -3.167708,2.79143 -3.029537,4.11349 0.138171,1.32206 1.581616,1.46144 3.255309,0.82575 -0.334459,2.50767 -3.505454,2.24546 -3.47766,3.17657 0.02779,0.93111 2.046204,0.87171 3.613209,0.36133 -0.434156,2.13004 -2.529245,2.50145 -2.529245,2.50145 z"
       id="path18"
       sodipodi:nodetypes="cscscsczczczccc"
       sodipodi:insensitive="true" /><text
       xml:space="preserve"
       transform="matrix(0.26458333,0,0,0.26458333,-34.11805,-5.2670726)"
       id="text4"
       style="font-style:normal;font-variant:normal;font-weight:normal;font-stretch:normal;font-size:146.667px;line-height:125%;font-family:'Davison Americana CG';-inkscape-font-specification:'Davison Americana CG, Normal';font-variant-ligatures:normal;font-variant-caps:normal;font-variant-numeric:normal;font-variant-east-asian:normal;text-align:center;letter-spacing:5px;word-spacing:0px;white-space:pre;shape-inside:url(#rect4);display:inline;fill:#335f6d;fill-opacity:1;stroke:none;stroke-width:1.00157;stroke-linecap:butt;stroke-linejoin:miter;stroke-dasharray:none;stroke-opacity:1;filter:url(#filter14)"
       sodipodi:insensitive="true"><tspan
         x="335.70382"
         y="542.57982"
         id="tspan1">BLU</tspan></text><g
       id="g2"
       style="display:inline;fill:none;stroke:#335f6d;stroke-opacity:1"
       sodipodi:insensitive="true"><use
         x="0"
         y="0"
         xlink:href="#path1"
         id="use2"
         style="display:inline;stroke:#335f6d;stroke-opacity:1" /></g><rect
       style="opacity:1;fill:#4b8090;fill-opacity:1;stroke:none;stroke-width:0.306947"
       id="rect3"
       width="100.54606"
       height="8.4509001"
       x="54.726971"
       y="186.74522"
       sodipodi:insensitive="true" /><text
       xml:space="preserve"
       style="font-style:normal;font-variant:normal;font-weight:normal;font-stretch:normal;font-size:4.93889px;line-height:125%;font-family:'Davison Americana CG';-inkscape-font-specification:'Davison Americana CG, Normal';font-variant-ligatures:normal;font-variant-caps:normal;font-variant-numeric:normal;font-variant-east-asian:normal;text-align:center;letter-spacing:0px;word-spacing:0px;text-anchor:middle;white-space:pre;inline-size:165.977;display:inline;opacity:1;fill:#90c0b8;fill-opacity:1;stroke:none;stroke-width:0.264583px;stroke-linecap:butt;stroke-linejoin:miter;stroke-opacity:1"
       x="104.79115"
       y="170.11859"
       id="text2"
       transform="translate(0.18922936,21.492282)"
       sodipodi:insensitive="true"><tspan
         x="104.79115"
         y="170.11859"
         id="tspan2">BACKWOODS LOGGING UNION</tspan></text><ellipse
       style="opacity:1;fill:#cbdbab;fill-opacity:1;stroke:none;stroke-width:0.217186"
       id="path3"
       cx="67.903198"
       cy="174.054"
       rx="0.55444622"
       ry="0.82543677"
       sodipodi:insensitive="true" /><use
       x="0"
       y="0"
       xlink:href="#path3"
       id="use4"
       transform="translate(3.2240925,-0.50029022)"
       sodipodi:insensitive="true" /><circle
       style="display:inline;opacity:1;fill:#4b8090;fill-opacity:1;stroke:none;stroke-width:0.264999"
       id="circle6"
       cx="137.15594"
       cy="166.89543"
       r="1.6606855"
       sodipodi:insensitive="true" /><path
       id="path5"
       style="opacity:1;fill:#385878;fill-opacity:1;stroke:none;stroke-width:0.264999"
       d="m 137.15597,165.23488 a 1.6606855,1.6606855 0 0 0 -1.66088,1.66036 1.6606855,1.6606855 0 0 0 1.66088,1.66088 1.6606855,1.6606855 0 0 0 0.45113,-0.0636 0.95194107,1.6606855 0 0 1 -0.69453,-1.59732 0.95194107,1.6606855 0 0 1 0.69505,-1.59732 1.6606855,1.6606855 0 0 0 -0.45165,-0.063 z"
       sodipodi:insensitive="true" /></g></svg>
