<?xml version="1.0" encoding="UTF-8" standalone="no"?>
<!-- Created with Inkscape (http://www.inkscape.org/) -->

<svg
   width="210mm"
   height="297mm"
   viewBox="0 0 210 297"
   version="1.1"
   id="svg5"
   inkscape:version="1.4 (86a8ad7, 2024-10-11)"
   sodipodi:docname="blu_logo_alt.svg"
   xml:space="preserve"
   xmlns:inkscape="http://www.inkscape.org/namespaces/inkscape"
   xmlns:sodipodi="http://sodipodi.sourceforge.net/DTD/sodipodi-0.dtd"
   xmlns="http://www.w3.org/2000/svg"
   xmlns:svg="http://www.w3.org/2000/svg"><sodipodi:namedview
     id="namedview7"
     pagecolor="#ffffff"
     bordercolor="#666666"
     borderopacity="1.0"
     inkscape:pageshadow="2"
     inkscape:pageopacity="0.0"
     inkscape:pagecheckerboard="0"
     inkscape:document-units="mm"
     showgrid="false"
     showborder="false"
     inkscape:showpageshadow="2"
     inkscape:deskcolor="#d1d1d1"
     inkscape:zoom="1.6828213"
     inkscape:cx="405.56891"
     inkscape:cy="546.40383"
     inkscape:window-width="3840"
     inkscape:window-height="2091"
     inkscape:window-x="-8"
     inkscape:window-y="-8"
     inkscape:window-maximized="1"
     inkscape:current-layer="svg5" /><defs
     id="defs2" /><g
     inkscape:label="Calque 1"
     inkscape:groupmode="layer"
     id="layer1"
     style="display:inline;opacity:1;fill:#000000;fill-opacity:1;stroke:none"
     transform="matrix(0.81239255,0,0,0.86752035,17.745595,19.542819)"><rect
       style="opacity:1;fill:#4b7380;fill-opacity:1;stroke:none;stroke-width:0.499999;stroke-linecap:round;stroke-linejoin:round;stroke-miterlimit:10"
       id="rect1"
       width="162.72896"
       height="190.55797"
       x="25.470619"
       y="61.63261" /><rect
       style="fill:#edf0d8;fill-opacity:1;stroke:none;stroke-width:0.591992;stroke-linecap:round;stroke-linejoin:round;stroke-miterlimit:10"
       id="rect2"
       width="157.1105"
       height="94.805664"
       x="28.513941"
       y="64.614388" /><g
       id="g4"><ellipse
         style="fill:#ddd068;fill-opacity:1;stroke:none;stroke-width:1.41176;stroke-linecap:round;stroke-linejoin:round;stroke-miterlimit:10"
         id="path2"
         cx="107.27398"
         cy="202.63814"
         rx="26.275126"
         ry="24.605434" /><g
         id="g6"><ellipse
           style="fill:none;fill-opacity:1;stroke:#edf0d8;stroke-width:0.595589;stroke-linecap:round;stroke-linejoin:round;stroke-miterlimit:10;stroke-opacity:1"
           id="path3"
           cx="107.27398"
           cy="202.63814"
           rx="47.706268"
           ry="10.919477" /><ellipse
           style="fill:none;fill-opacity:1;stroke:#edf0d8;stroke-width:0.596231;stroke-linecap:round;stroke-linejoin:round;stroke-miterlimit:10;stroke-opacity:1"
           id="ellipse3"
           ry="11.296045"
           rx="46.215351"
           cy="221.71173"
           cx="-74.744606"
           transform="matrix(0.72991819,-0.68353451,0.72991819,0.68353451,0,0)" /><ellipse
           style="fill:none;fill-opacity:1;stroke:#edf0d8;stroke-width:0.596231;stroke-linecap:round;stroke-linejoin:round;stroke-miterlimit:10;stroke-opacity:1"
           id="ellipse4"
           ry="11.296045"
           rx="46.215351"
           cy="-74.744606"
           cx="-221.71173"
           transform="matrix(-0.72991819,-0.68353452,0.72991819,-0.68353452,0,0)" /></g></g><path
       id="path4"
       style="display:inline;fill:#4b7380;fill-opacity:1;fill-rule:evenodd;stroke:none;stroke-width:0.315166px;stroke-linecap:butt;stroke-linejoin:miter;stroke-opacity:1"
       d="M 93.296521,72.829797 C 82.637674,97.522988 70.53441,126.62256 59.924715,151.55007 c 51.327785,-0.96139 58.601005,1.22743 66.309205,-3.85196 7.7082,-5.0794 8.78685,-7.94284 11.24633,-13.75978 2.45947,-5.81694 6.25472,-14.59562 5.37432,-19.42703 -0.8804,-4.83141 -8.00316,-5.67744 -12.43133,-6.03186 6.2743,-0.34366 13.06583,-2.99424 16.54373,-6.36126 3.4779,-3.367024 4.91867,-6.811133 6.04806,-9.333707 1.12939,-2.522574 4.1663,-11.088456 -0.19402,-15.903458 -4.36032,-4.815002 -14.36831,-5.518352 -59.524489,-4.051218 z M 119.96827,85.54756 c 1.90031,-0.0065 4.61851,0.206556 5.60215,1.390316 1.53212,1.843842 0.38405,3.898096 -0.77987,6.673996 -1.50871,3.59821 -3.55939,7.603238 -5.41513,8.808908 -2.40539,1.56278 -9.02247,1.15503 -9.02247,1.15503 l 7.62941,-17.941877 c 0,0 0.84572,-0.08249 1.98591,-0.08637 z m -12.55602,30.22777 c 1.90032,-0.006 4.61852,0.20715 5.60215,1.39091 1.53212,1.84384 0.38406,3.8975 -0.77986,6.6734 -1.50871,3.59821 -5.79974,11.75275 -7.65548,12.95842 -2.40539,1.56278 -8.885708,1.15443 -8.885708,1.15443 l 9.732988,-22.09019 c 0,0 0.84573,-0.0831 1.98591,-0.087 z"
       sodipodi:nodetypes="cczzzczzzcssssccssssssccss" /></g></svg>
