<?xml version="1.0" encoding="UTF-8" standalone="no"?>
<!-- Created with Inkscape (http://www.inkscape.org/) -->

<svg
   width="210mm"
   height="297mm"
   viewBox="0 0 210 297"
   version="1.1"
   id="svg5"
   inkscape:version="1.4 (86a8ad7, 2024-10-11)"
   xml:space="preserve"
   sodipodi:docname="logo_blue_white.svg"
   xmlns:inkscape="http://www.inkscape.org/namespaces/inkscape"
   xmlns:sodipodi="http://sodipodi.sourceforge.net/DTD/sodipodi-0.dtd"
   xmlns="http://www.w3.org/2000/svg"
   xmlns:svg="http://www.w3.org/2000/svg"><sodipodi:namedview
     id="namedview7"
     pagecolor="#ffffff"
     bordercolor="#666666"
     borderopacity="1.0"
     inkscape:pageshadow="2"
     inkscape:pageopacity="0.0"
     inkscape:pagecheckerboard="0"
     inkscape:document-units="mm"
     showgrid="false"
     showborder="false"
     inkscape:showpageshadow="2"
     inkscape:deskcolor="#d1d1d1"
     inkscape:zoom="2.3798686"
     inkscape:cx="280.26757"
     inkscape:cy="667.05362"
     inkscape:window-width="3840"
     inkscape:window-height="2091"
     inkscape:window-x="-8"
     inkscape:window-y="-8"
     inkscape:window-maximized="1"
     inkscape:current-layer="layer1" /><defs
     id="defs2" /><g
     inkscape:label="Calque 1"
     inkscape:groupmode="layer"
     id="layer1"
     style="display:inline"><rect
       style="fill:#edf0d8;fill-opacity:1;stroke:#4b7180;stroke-width:0.832957;stroke-dasharray:none;stroke-opacity:1"
       id="rect1"
       width="117.243"
       height="117.243"
       x="46.378502"
       y="89.878502"
       ry="2.4673944"
       sodipodi:insensitive="true" /><text
       xml:space="preserve"
       style="font-style:normal;font-variant:normal;font-weight:normal;font-stretch:normal;font-size:8.57946px;line-height:125%;font-family:Impact;-inkscape-font-specification:'Impact, Normal';font-variant-ligatures:normal;font-variant-caps:normal;font-variant-numeric:normal;font-variant-east-asian:normal;text-align:center;letter-spacing:0px;word-spacing:0px;text-anchor:middle;fill:#5b808b;fill-opacity:1;stroke:none;stroke-width:0.247484px;stroke-linecap:butt;stroke-linejoin:miter;stroke-opacity:1"
       x="98.191284"
       y="206.90894"
       id="text64"
       transform="scale(1.0690905,0.9353745)"
       sodipodi:insensitive="true"><tspan
         sodipodi:role="line"
         id="tspan64"
         style="font-style:normal;font-variant:normal;font-weight:normal;font-stretch:normal;font-size:8.57946px;font-family:Impact;-inkscape-font-specification:'Impact, Normal';font-variant-ligatures:normal;font-variant-caps:normal;font-variant-numeric:normal;font-variant-east-asian:normal;fill:#5b808b;fill-opacity:1;stroke:none;stroke-width:0.247484px"
         x="98.191284"
         y="206.90894">BUILDERS LEAGUE UNITED</tspan></text><path
       id="path65"
       style="fill:#5b808b;fill-opacity:1;fill-rule:evenodd;stroke:none;stroke-width:0.264583px;stroke-linecap:butt;stroke-linejoin:miter;stroke-opacity:1"
       d="m 137.41538,100.46725 c -4.78521,-0.480434 -44.415955,-0.15697 -44.415955,-0.15697 l -32.15301,80.34226 c 0,0 35.150901,0.64855 45.752765,-0.39274 10.60186,-1.04129 12.22885,-1.3108 17.45631,-3.76978 5.22746,-2.45898 9.41966,-9.36476 11.86645,-15.412 2.44679,-6.04724 5.44695,-14.78181 2.9736,-19.30624 -2.47335,-4.52444 -10.52043,-4.82768 -10.52043,-4.82768 0,0 9.35812,-1.57621 13.28549,-4.55993 3.92737,-2.98372 7.56686,-7.73021 8.80463,-12.81369 1.23777,-5.08348 1.52903,-12.65658 -1.96525,-15.72256 -3.49428,-3.06598 -6.29939,-2.90024 -11.0846,-3.38067 z m -20.36051,12.81421 c 4.84194,0.79943 6.3849,0.59298 6.86165,2.43775 0.47674,1.84476 -2.14632,11.59135 -5.03399,13.89714 -2.88766,2.30578 -4.13301,2.10663 -10.08194,2.45362 2.66718,-5.1562 5.91379,-14.47387 8.25428,-18.78851 z m -12.6029,30.91409 c 5.69414,0.95572 7.3488,0.35568 7.68934,2.51625 0.34054,2.16057 -3.7822,15.24717 -7.93988,18.17906 -4.15768,2.9319 -9.001039,1.76873 -9.001039,1.76873 0,0 7.115049,-17.47187 9.251579,-22.46404 z"
       sodipodi:nodetypes="zcczzzzczzzzczzccczzcc" /><g
       id="g11"><g
         inkscape:label="WireframeSphere"
         transform="matrix(0.52998854,0.21078043,-0.21078043,0.52998854,79.007102,135.49072)"
         id="g10"
         style="display:inline;fill:#d3c555;fill-opacity:1;stroke:#edf0d8;stroke-width:1;stroke-dasharray:none;stroke-opacity:1"
         sodipodi:insensitive="true"><circle
           style="display:inline;fill:#d3c555;fill-opacity:1;stroke:#edf0d8;stroke-width:1;stroke-dasharray:none;stroke-opacity:1"
           id="circle1"
           r="26.458334"
           cy="0"
           cx="0" /><g
           inkscape:label="Lines of Longitude"
           id="g6"
           style="display:inline;fill:#d3c555;fill-opacity:1"><path
             sodipodi:cx="0"
             sodipodi:cy="0"
             sodipodi:rx="0.46269125"
             sodipodi:ry="26.458334"
             sodipodi:type="arc"
             sodipodi:arc-type="arc"
             sodipodi:start="1.5707963"
             sodipodi:end="4.712389"
             sodipodi:open="true"
             d="m 0,26.458334 a 0.46269125,26.458334 0 0 1 -0.40070237,-13.229167 0.46269125,26.458334 0 0 1 0,-26.458334 A 0.46269125,26.458334 0 0 1 0,-26.458334"
             style="fill:#d3c555;fill-opacity:1"
             transform="rotate(0.0174542)"
             id="path1" /><path
             sodipodi:cx="0"
             sodipodi:cy="0"
             sodipodi:rx="13.625974"
             sodipodi:ry="26.458334"
             sodipodi:type="arc"
             sodipodi:arc-type="arc"
             sodipodi:start="1.5707963"
             sodipodi:end="4.712389"
             sodipodi:open="true"
             d="m 0,26.458334 a 13.625974,26.458334 0 0 1 -11.800439,-13.229167 13.625974,26.458334 0 0 1 0,-26.458334 A 13.625974,26.458334 0 0 1 0,-26.458334"
             style="fill:none;fill-opacity:1"
             transform="rotate(0.600808)"
             id="path2" /><path
             sodipodi:cx="0"
             sodipodi:cy="0"
             sodipodi:rx="23.138454"
             sodipodi:ry="26.458334"
             sodipodi:type="arc"
             sodipodi:arc-type="arc"
             sodipodi:start="1.5707963"
             sodipodi:end="4.712389"
             sodipodi:open="true"
             d="m 0,26.458334 a 23.138454,26.458334 0 0 1 -20.038489,-13.229167 23.138454,26.458334 0 0 1 0,-26.458334 A 23.138454,26.458334 0 0 1 0,-26.458334"
             style="fill:none;fill-opacity:1"
             transform="rotate(1.80336)"
             id="path3" /><path
             sodipodi:cx="0"
             sodipodi:cy="0"
             sodipodi:rx="26.451275"
             sodipodi:ry="26.458334"
             sodipodi:type="arc"
             sodipodi:arc-type="arc"
             sodipodi:start="4.712389"
             sodipodi:end="1.5707963"
             sodipodi:open="true"
             d="M 0,-26.458334 A 26.451275,26.458334 0 0 1 26.451275,0 26.451275,26.458334 0 0 1 0,26.458334"
             style="fill:none;fill-opacity:1"
             transform="rotate(-44.9956)"
             id="path4" /><path
             sodipodi:cx="0"
             sodipodi:cy="0"
             sodipodi:rx="22.676764"
             sodipodi:ry="26.458334"
             sodipodi:type="arc"
             sodipodi:arc-type="arc"
             sodipodi:start="4.712389"
             sodipodi:end="1.5707963"
             sodipodi:open="true"
             d="M 0,-26.458334 A 22.676764,26.458334 0 0 1 22.676764,0 22.676764,26.458334 0 0 1 0,26.458334"
             style="fill:none;fill-opacity:1"
             transform="rotate(-1.66373)"
             id="path5" /><path
             sodipodi:cx="0"
             sodipodi:cy="0"
             sodipodi:rx="12.826301"
             sodipodi:ry="26.458334"
             sodipodi:type="arc"
             sodipodi:arc-type="arc"
             sodipodi:start="4.712389"
             sodipodi:end="1.5707963"
             sodipodi:open="true"
             d="M 0,-26.458334 A 12.826301,26.458334 0 0 1 12.826301,0 12.826301,26.458334 0 0 1 0,26.458334"
             style="fill:none;fill-opacity:1"
             transform="rotate(-0.554264)"
             id="path6" /></g><g
           inkscape:label="Lines of Latitude"
           id="g9"
           style="display:inline;fill:#d3c555;fill-opacity:1"><path
             sodipodi:cx="0"
             sodipodi:cy="18.706017"
             sodipodi:rx="18.708866"
             sodipodi:ry="0.32751474"
             sodipodi:type="arc"
             sodipodi:arc-type="arc"
             sodipodi:start="0.017455951"
             sodipodi:end="3.1241367"
             sodipodi:open="true"
             d="M 18.706016,18.711733 A 18.708866,0.32751474 0 0 1 0,19.033531 18.708866,0.32751474 0 0 1 -18.706016,18.711733"
             style="fill:#d3c555;fill-opacity:1"
             id="path7" /><path
             sodipodi:cx="0"
             sodipodi:cy="1.6198589e-15"
             sodipodi:rx="26.458334"
             sodipodi:ry="0.46276158"
             sodipodi:type="arc"
             sodipodi:arc-type="arc"
             sodipodi:start="0"
             sodipodi:end="3.1415927"
             sodipodi:open="true"
             d="m 26.458334,0 a 26.458334,0.46276158 0 0 1 -13.229167,0.40076329 26.458334,0.46276158 0 0 1 -26.458335,-10e-9 A 26.458334,0.46276158 0 0 1 -26.458334,0"
             style="fill:#d3c555;fill-opacity:1"
             id="path8" /><path
             sodipodi:cx="0"
             sodipodi:cy="-18.706017"
             sodipodi:rx="18.708866"
             sodipodi:ry="0.32751474"
             sodipodi:type="arc"
             sodipodi:arc-type="arc"
             sodipodi:start="6.2657294"
             sodipodi:end="3.1590486"
             sodipodi:open="true"
             d="m 18.706016,-18.711733 a 18.708866,0.32751474 0 0 1 -9.2574664,0.288395 18.708866,0.32751474 0 0 1 -18.8970998,0 18.708866,0.32751474 0 0 1 -9.2574658,-0.288395"
             style="fill:#d3c555;fill-opacity:1"
             id="path9" /></g></g><g
         inkscape:label="WireframeSphere"
         transform="matrix(0.52998854,0.21078043,-0.21078043,0.52998854,79.007102,135.49072)"
         id="g64"
         style="display:inline;fill:#5b808b;fill-opacity:1;stroke:#edf0d8;stroke-width:1;stroke-dasharray:none;stroke-opacity:1"
         sodipodi:insensitive="true"><path
           style="display:inline;fill:#5b808b;fill-opacity:1;stroke:#edf0d8;stroke-width:1;stroke-dasharray:none;stroke-opacity:1"
           id="path64"
           sodipodi:insensitive="true"
           sodipodi:type="arc"
           sodipodi:cx="0"
           sodipodi:cy="0"
           sodipodi:rx="26.458334"
           sodipodi:ry="26.458334"
           sodipodi:start="1.5707963"
           sodipodi:end="4.712389"
           sodipodi:arc-type="slice"
           d="m 0,26.458334 a 26.458334,26.458334 0 0 1 -22.913589,-13.229167 26.458334,26.458334 0 0 1 0,-26.458334 A 26.458334,26.458334 0 0 1 0,-26.458334 V 0 Z" /><g
           inkscape:label="Lines of Longitude"
           id="g60"
           style="fill:none;fill-opacity:1;stroke:#edf0d8;stroke-width:1;stroke-dasharray:none;stroke-opacity:1"
           sodipodi:insensitive="true"><path
             sodipodi:cx="0"
             sodipodi:cy="0"
             sodipodi:rx="0.46269125"
             sodipodi:ry="26.458334"
             sodipodi:type="arc"
             sodipodi:arc-type="arc"
             sodipodi:start="1.5707963"
             sodipodi:end="4.712389"
             sodipodi:open="true"
             d="m 0,26.458334 a 0.46269125,26.458334 0 0 1 -0.40070237,-13.229167 0.46269125,26.458334 0 0 1 0,-26.458334 A 0.46269125,26.458334 0 0 1 0,-26.458334"
             style="fill:none;fill-opacity:1;stroke:#edf0d8;stroke-width:1;stroke-dasharray:none;stroke-opacity:1"
             transform="rotate(0.0174542)"
             id="path55" /><path
             sodipodi:cx="0"
             sodipodi:cy="0"
             sodipodi:rx="13.625974"
             sodipodi:ry="26.458334"
             sodipodi:type="arc"
             sodipodi:arc-type="arc"
             sodipodi:start="1.5707963"
             sodipodi:end="4.712389"
             sodipodi:open="true"
             d="m 0,26.458334 a 13.625974,26.458334 0 0 1 -11.800439,-13.229167 13.625974,26.458334 0 0 1 0,-26.458334 A 13.625974,26.458334 0 0 1 0,-26.458334"
             style="fill:none;fill-opacity:1;stroke:#edf0d8;stroke-width:1;stroke-dasharray:none;stroke-opacity:1"
             transform="rotate(0.600808)"
             id="path56" /><path
             sodipodi:cx="0"
             sodipodi:cy="0"
             sodipodi:rx="23.138454"
             sodipodi:ry="26.458334"
             sodipodi:type="arc"
             sodipodi:arc-type="arc"
             sodipodi:start="1.5707963"
             sodipodi:end="4.712389"
             sodipodi:open="true"
             d="m 0,26.458334 a 23.138454,26.458334 0 0 1 -20.038489,-13.229167 23.138454,26.458334 0 0 1 0,-26.458334 A 23.138454,26.458334 0 0 1 0,-26.458334"
             style="fill:none;fill-opacity:1;stroke:#edf0d8;stroke-width:1;stroke-dasharray:none;stroke-opacity:1"
             transform="rotate(1.80336)"
             id="path57" /><path
             sodipodi:cx="0"
             sodipodi:cy="0"
             sodipodi:rx="26.451275"
             sodipodi:ry="26.458334"
             sodipodi:type="arc"
             sodipodi:arc-type="arc"
             sodipodi:start="4.712389"
             sodipodi:end="1.5707963"
             sodipodi:open="true"
             d="M 0,-26.458334 A 26.451275,26.458334 0 0 1 26.451275,0 26.451275,26.458334 0 0 1 0,26.458334"
             style="fill:none;fill-opacity:1;stroke:#edf0d8;stroke-width:1;stroke-dasharray:none;stroke-opacity:1"
             transform="rotate(-44.9956)"
             id="path58" /></g><g
           inkscape:label="Lines of Latitude"
           id="g63"
           style="display:inline;fill:none;fill-opacity:1;stroke:#edf0d8;stroke-width:1;stroke-dasharray:none;stroke-opacity:1"
           sodipodi:insensitive="true"><path
             sodipodi:cx="0"
             sodipodi:cy="18.706017"
             sodipodi:rx="18.708866"
             sodipodi:ry="0.32751474"
             sodipodi:type="arc"
             sodipodi:arc-type="arc"
             sodipodi:start="0.017455951"
             sodipodi:end="3.1241367"
             sodipodi:open="true"
             d="M 18.706016,18.711733 A 18.708866,0.32751474 0 0 1 0,19.033531 18.708866,0.32751474 0 0 1 -18.706016,18.711733"
             style="fill:none;fill-opacity:1;stroke:#edf0d8;stroke-width:1;stroke-dasharray:none;stroke-opacity:1"
             id="path61" /><path
             sodipodi:cx="0"
             sodipodi:cy="1.6198589e-15"
             sodipodi:rx="26.458334"
             sodipodi:ry="0.46276158"
             sodipodi:type="arc"
             sodipodi:arc-type="arc"
             sodipodi:start="0"
             sodipodi:end="3.1415927"
             sodipodi:open="true"
             d="m 26.458334,0 a 26.458334,0.46276158 0 0 1 -13.229167,0.40076329 26.458334,0.46276158 0 0 1 -26.458335,-10e-9 A 26.458334,0.46276158 0 0 1 -26.458334,0"
             style="fill:none;fill-opacity:1;stroke:#edf0d8;stroke-width:1;stroke-dasharray:none;stroke-opacity:1"
             id="path62" /><path
             sodipodi:cx="0"
             sodipodi:cy="-18.706017"
             sodipodi:rx="18.708866"
             sodipodi:ry="0.32751474"
             sodipodi:type="arc"
             sodipodi:arc-type="arc"
             sodipodi:start="6.2657294"
             sodipodi:end="3.1590486"
             sodipodi:open="true"
             d="m 18.706016,-18.711733 a 18.708866,0.32751474 0 0 1 -9.2574664,0.288395 18.708866,0.32751474 0 0 1 -18.8970998,0 18.708866,0.32751474 0 0 1 -9.2574658,-0.288395"
             style="fill:none;fill-opacity:1;stroke:#edf0d8;stroke-width:1;stroke-dasharray:none;stroke-opacity:1"
             id="path63" /></g></g></g></g></svg>
